<?xml version="1.0" encoding="utf-8"?>
<!-- Generator: Adobe Illustrator 19.0.0, SVG Export Plug-In . SVG Version: 6.00 Build 0)  -->
<svg version="1.0" xmlns="http://www.w3.org/2000/svg" xmlns:xlink="http://www.w3.org/1999/xlink" x="0px" y="0px"
	 viewBox="0 0 2376 7909" style="enable-background:new 0 0 2376 7909;" xml:space="preserve">
<style type="text/css">
	.st0{fill:#FFFFFF;}
	.st1{fill:#FFFFFF;stroke:#FFFFFF;stroke-miterlimit:10;}
	.st2{font-family:'MyriadPro-Regular';}
	.st3{font-size:15.8463px;glyph-orientation-vertical:0;writing-mode:tb;}
	.st4{fill:#FCFCFC;}
	.st5{font-family:'Corbel-Bold';}
	.st6{font-size:69.7725px;}
	.st7{fill:#D86C93;}
</style>
<g id="Layer_1">
	<g>
		<path class="st0" d="M64.7,1646.8l-0.1-1l45.3-3.3c70.1-3.1,109.2-28.7,129.6-49.7c22.2-22.7,27.9-45,27.9-45.2l0-0.1
			c16.4-29.5,12-86.5,11.9-87l16.7-372.7l6.7-78.7l9.3-95.3l12-180l3.3-120.6l1.3-72l3.3-238.7L335.1,0l1,0l-2.9,302.3L329.8,541
			l-1.3,72l-3.3,120.7l-12,180l-9.3,95.3l-6.7,78.7l-16.7,372.6c0,0.5,4.5,57.7-12,87.5c-0.4,1.4-6.4,23.3-28.1,45.6
			c-20.6,21.1-59.9,47-130.3,50.1L64.7,1646.8z"/>
	</g>
	<g>
		<path class="st0" d="M531.4,315.4c-39.6,0-53.9-19-54.7-20.1c-22.4-20.9-17.7-68.9-17.6-69.4l4-226l1,0l-4,226
			c-0.1,0.5-4.7,48,17.3,68.6l0.1,0.1c0.2,0.2,14,19.7,53.9,19.7c4.8,0,10-0.3,15.6-0.9l0.1,1C541.4,315.1,536.2,315.4,531.4,315.4z
			"/>
	</g>
	<g>
		<path class="st0" d="M440,1444.8l-1,0l4.8-368.3c0-3.2-0.9-5.5-2.8-7c-3.5-2.7-9.3-1.3-9.4-1.3l-0.6,0.2l0-43.1h12.8l4.5-251.2
			l-0.8,0.1c-3.5,1.8-6.5,2.3-8.9,1.4c-2.7-1-3.7-3.3-3.7-3.4l0-0.1l1.7-70.3l4-8.7c11.5-21.3,12.9-58.1,13-58.5l0-64.3L455,436
			c-1.3-27.6,11.8-41.9,23.1-49c12.2-7.7,24.8-8.9,24.9-9l0.1,1c-0.1,0-12.6,1.2-24.5,8.8c-11,7-23.8,21-22.6,48.2l-1.5,134.4v64.3
			c0,0.4-1.5,37.4-13.1,58.9l-3.9,8.5l-1.7,69.8c0.2,0.4,1.1,2,3.1,2.8c2.2,0.8,4.9,0.3,8.2-1.4l0.2-0.1l2-0.2l-4.5,253.3H432v40.9
			c1.7-0.3,6.4-0.9,9.6,1.6c2.1,1.6,3.2,4.2,3.2,7.8L440,1444.8z"/>
	</g>
	<g>
		
			<rect x="434.1" y="1613" transform="matrix(0.9999 1.659928e-002 -1.659928e-002 0.9999 28.7372 -6.9764)" class="st0" width="1" height="229.3"/>
	</g>
	<g>
		<polygon class="st0" points="431.5,2081.8 430.5,2081.8 430.5,2016.8 432.3,1847 433.3,1847 431.5,2016.8 		"/>
	</g>
	<g>
		
			<rect x="428.9" y="2083.5" transform="matrix(0.9999 1.562309e-002 -1.562309e-002 0.9999 33.2282 -6.4646)" class="st0" width="3" height="80"/>
	</g>
	<g>
		<polygon class="st0" points="425,2516.5 424,2516.5 426,2328.7 429.3,2165.5 430.3,2165.5 427,2328.8 		"/>
	</g>
	<g>
		<path class="st0" d="M485.1,2707.3c-31.9,0-51.3-26.4-51.5-26.7c-9.9-10.4-18.7-63.5-19.1-65.7l1-0.2c0.1,0.5,9.1,55,18.9,65.2
			c0.2,0.3,19.6,26.6,51.1,26.3l77.8,0v1l-77.8,0C485.4,2707.3,485.2,2707.3,485.1,2707.3z"/>
	</g>
	<g>
		<path class="st0" d="M1449.7,4579.2c-7.7,0-13.3-1.7-13.4-1.7l-73.5-30l-139-55.5l-154-63l-131.5-52l-36-18
			c-36.8-21.9-53.1-64.3-53.2-64.8l-100.5-434.1c-1.9-11.5-9.2-12.1-9.5-12.1l-0.2,0l-11.6-5.1c-12-9-15.7-23.6-15.7-23.8
			c-6.1-18.9,13-36.2,15.4-38.3l-2.9-11.7l-90-342l-45-160l-98-363c-3.9-13.1-17.5-17.6-17.7-17.7l-0.1-0.1
			c-14.5-11-17.2-23.9-17.2-24.1c-11.5-29.8-5.9-51.4,0.8-64.3c7-13.4,16.7-20.4,17.6-21c13.6-16,68.5-11.1,70.9-10.9l-0.1,1
			c-0.6-0.1-56.9-5-70.1,10.6l-0.1,0.1c-0.1,0.1-10.1,6.9-17.3,20.7c-6.6,12.7-12.2,34-0.7,63.5c0,0.2,2.7,12.8,16.8,23.5
			c1.2,0.4,14.4,5.3,18.2,18.3l98,363l45,160l90,342l3.1,12.3l-0.2,0.2c-0.2,0.2-21.7,18-15.3,37.5c0,0.2,3.6,14.4,15.3,23.2
			l11.4,4.9c0.9,0.1,8.4,1.4,10.4,12.9l100.5,434c0.1,0.4,16.4,42.5,52.8,64.2l36,18l131.5,52l154,63l139,55.5l73.5,30
			c0.2,0,19.4,5.8,35.5-4.5l0.5,0.8C1465,4577.9,1456.5,4579.2,1449.7,4579.2z"/>
	</g>
	<g>
		<path class="st0" d="M2044.5,7909.2l-14-36.9c-5-7.4-6.8-13.9-5.3-19.5c1.7-6.1,6.7-8.8,7.4-9.2c11-10.1,7.4-19.3,7.3-19.4
			l-38.5-115.5c-2.5-6.9-39.6-76.2-40-76.9l-23-41.5L1630,6683.7l-136-408.5l-40.5-118.5l-32.5-100.5c-6.1-15,6.5-27.5,8.4-29.3
			l-43.9-136.7l-24.5-79l-53.5-156.5l-59.5-174l-93-278l-71-208.5l-62.5-192.5c-14-35.2-12.1-64-8.1-82
			c4.3-19.5,12.1-30.8,12.2-30.9c33.5-43.2,60.8-50.8,62.2-51.2c44.7-21.3,138.8-0.2,139.8,0c44,5.9,198.5,71.9,200.1,72.5l-0.4,0.9
			c-1.6-0.7-155.9-66.5-199.9-72.5c-1-0.2-94.9-21.2-139.2,0l-0.1,0c-0.3,0.1-27.8,7-61.7,50.8c-0.3,0.4-30.5,45.1-3.9,112
			l62.5,192.5l71,208.5l93,278l59.5,174l53.5,156.5l24.5,79l44.1,137.3l-0.3,0.2c-0.1,0.1-14.7,13-8.4,28.4l32.5,100.5l40.5,118.5
			l136,408.5l308.5,906.5l23,41.4c1.5,2.9,37.5,70.1,40,77.1l38.5,115.5c0,0.1,4,9.9-7.6,20.5l-0.1,0.1c-0.1,0-5.3,2.6-7,8.6
			c-1.4,5.3,0.3,11.6,5.2,18.7l0.1,0.1l14,37L2044.5,7909.2z"/>
	</g>
	<g>
		<path class="st0" d="M1938.5,7909.2l-40.5-124l-46-137l-155-463l-194.5-580l-115-343.5l-76-244.4c-1-1.2-15.7-17.6-48.4-6.3
			l-0.3-0.9c34.4-12,49.4,6.5,49.6,6.7l0.1,0.2l76,244.5l115,343.5l194.5,580l155,463l46,137l40.5,124L1938.5,7909.2z"/>
	</g>
	<g>
		<path class="st0" d="M1234.2,5953.5l-0.4-0.9c0.3-0.1,31.7-13.7,35.2-27.1c-0.1-9.8-17.5-64.2-17.7-64.8l-116.8-330.1V5458
			c-0.1-0.5-5.7-51.2-28.4-81.2l-5.6-7.1l-207-581.5c-0.1-0.5-6.4-37-43.2-52.2c-0.4-0.2-34.8-17.6-76.1,3.5l-44.5,21.5l-0.4-0.9
			l44.5-21.5c41.7-21.4,76.6-3.7,76.9-3.5c37.3,15.4,43.7,52.5,43.8,52.9l207,581.3l5.5,6.9c22.8,30.3,28.5,81.2,28.6,81.8l0,72.5
			l116.7,329.9c0.7,2.3,17.8,55.4,17.8,65.2l0,0.1C1266.5,5939.5,1235.5,5952.9,1234.2,5953.5z"/>
	</g>
	<g>
		<path class="st0" d="M693.7,4690l-0.3-0.9c0.6-0.2,61.2-23,90.3-60.9c0.4-0.4,32.3-33.9,24.9-87.1l-1.9-18l-58.1-200.5L697,4129.1
			l-57-201.5l-119-449l-92-337l-58-221.5l-24.5-92.5c-0.2-0.9-18.6-84.6-28-131.5l-32.5-175c-0.2-0.6-21-64.4-17.5-140.1l3.5-294.5
			c0.1-0.9,5.4-87.8,0-117.4c-0.1-0.8-6-75.8-47.9-147.8c-0.1-0.1-11.9-17.1-36.6-33.7c-22.8-15.3-61.6-33.3-117-32.6l0-1
			c55.7-0.8,94.7,17.4,117.6,32.8c24.9,16.7,36.7,33.8,36.8,33.9c42.1,72.3,48,147.5,48.1,148.2c5.4,29.7,0.1,116.7,0,117.6
			l-3.5,294.5c-3.5,75.6,17.3,139.2,17.5,139.8l32.5,175.1c9.4,46.9,27.8,130.6,28,131.5l24.5,92.5l58,221.5l92,337l119,449
			l57,201.5l51.5,193.5l58.1,200.5l1.9,18c7.4,53.6-24.8,87.5-25.1,87.8C755.1,4666.9,694.3,4689.7,693.7,4690z"/>
	</g>
	<g>
		
			<rect x="399.6" y="181.7" transform="matrix(0.9999 1.171795e-002 -1.171795e-002 0.9999 2.7324 -4.684)" class="st0" width="3" height="98.3"/>
	</g>
	<g>
		
			<rect x="397.7" y="374.2" transform="matrix(0.9999 1.497228e-002 -1.497228e-002 0.9999 6.889 -5.9264)" class="st0" width="3" height="165.8"/>
	</g>
	<g>
		<path class="st0" d="M398.2,614.8l-3-0.1l0.3-13l3,0.1L398.2,614.8z M398.7,588.8l-3-0.1l0.3-13l3,0.1L398.7,588.8z M399.2,562.8
			l-3-0.1l0.3-13l3,0.1L399.2,562.8z"/>
	</g>
	<g>
		<polygon class="st0" points="352,1440.8 349,1440.7 352.5,1330.2 356.3,1225.7 362.3,1124.7 377.5,937.9 390.5,774.4 395,631.5 
			398,631.5 393.5,774.5 380.5,938.1 365.2,1124.9 359.2,1225.8 355.5,1330.3 		"/>
	</g>
	<g>
		<polygon class="st0" points="375,1440.8 372,1440.7 379.8,1199.2 384,1055.5 386.5,925 389.8,787.2 392.7,787.3 389.5,925 
			387,1055.5 382.7,1199.3 		"/>
	</g>
	<g>
		
			<rect x="381.1" y="944.2" transform="matrix(0.6871 0.7265 -0.7265 0.6871 810.6868 19.6163)" class="st0" width="3" height="13.8"/>
	</g>
	<g>
		
			<rect x="379.2" y="972.5" transform="matrix(0.6609 0.7505 -0.7505 0.6609 864.4012 46.5592)" class="st0" width="3" height="14.6"/>
	</g>
	<g>
		
			<rect x="377.9" y="1000.4" transform="matrix(0.6915 0.7224 -0.7224 0.6915 846.5488 37.4883)" class="st0" width="3" height="18.8"/>
	</g>
	<g>
		
			<rect x="376.2" y="1025.7" transform="matrix(0.7589 0.6512 -0.6512 0.7589 766.4542 4.1106)" class="st0" width="3" height="23"/>
	</g>
	<g>
		
			<rect x="374.9" y="1055.4" transform="matrix(0.7129 0.7012 -0.7012 0.7129 856.8863 42.5962)" class="st0" width="3" height="25"/>
	</g>
	<g>
		
			<rect x="373" y="1083.4" transform="matrix(0.7065 0.7078 -0.7078 0.7065 885.8594 56.7667)" class="st0" width="3" height="25.9"/>
	</g>
	<g>
		
			<rect x="371.9" y="1110.3" transform="matrix(0.6966 0.7174 -0.7174 0.6966 920.143 73.2876)" class="st0" width="3" height="28.6"/>
	</g>
	<g>
		
			<rect x="370.6" y="1138.6" transform="matrix(0.7189 0.6951 -0.6951 0.7189 905.7833 65.358)" class="st0" width="3" height="28.1"/>
	</g>
	<g>
		
			<rect x="369.7" y="1165.4" transform="matrix(0.7043 0.7099 -0.7099 0.7043 947.6466 85.4451)" class="st0" width="3" height="29.8"/>
	</g>
	<g>
		
			<rect x="368.2" y="1192.9" transform="matrix(0.7405 0.6721 -0.6721 0.7405 908.3527 65.2695)" class="st0" width="3" height="31.7"/>
	</g>
	<g>
		
			<rect x="367.1" y="1220" transform="matrix(0.7061 0.7081 -0.7081 0.7061 983.8719 102.3414)" class="st0" width="3" height="33"/>
	</g>
	<g>
		
			<rect x="366.1" y="1248.4" transform="matrix(0.7273 0.6863 -0.6863 0.7273 967.7292 92.3568)" class="st0" width="3" height="31.2"/>
	</g>
	<g>
		
			<rect x="365.1" y="1275.5" transform="matrix(0.7086 0.7056 -0.7056 0.7086 1018.5898 117.8322)" class="st0" width="3" height="33.1"/>
	</g>
	<g>
		
			<rect x="364.9" y="1302.5" transform="matrix(0.7118 0.7024 -0.7024 0.7118 1031.8429 122.7268)" class="st0" width="3" height="32.5"/>
	</g>
	<g>
		
			<rect x="363.5" y="1330.8" transform="matrix(0.7002 0.7139 -0.7139 0.7002 1071.3975 143.3694)" class="st0" width="3" height="33.3"/>
	</g>
	<g>
		
			<rect x="363" y="1357.9" transform="matrix(0.7205 0.6935 -0.6935 0.7205 1055.0128 131.3655)" class="st0" width="3" height="33.1"/>
	</g>
	<g>
		<rect x="361.7" y="1386.4" transform="matrix(0.72 0.694 -0.694 0.72 1074.8805 140.5602)" class="st0" width="3" height="31.9"/>
	</g>
	<g>
		
			<rect x="360.8" y="1414.7" transform="matrix(0.6893 0.7245 -0.7245 0.6893 1148.6445 181.8231)" class="st0" width="3" height="30.8"/>
	</g>
	<g>
		<rect x="448.7" y="631.8" class="st0" width="16.3" height="3"/>
	</g>
	<g>
		<path class="st0" d="M364.5,689.9l-3-0.1l0.6-30l3,0.1L364.5,689.9z M365.7,630l-3-0.1l0.6-30l3,0.1L365.7,630z M366.9,570l-3-0.1
			l0.6-30l3,0.1L366.9,570z M368.1,510l-3-0.1l0.6-30l3,0.1L368.1,510z M369.3,450l-3-0.1l0.6-30l3,0.1L369.3,450z M370.5,390
			l-3-0.1l0.6-30l3,0.1L370.5,390z M371.7,330l-3-0.1l0.6-30l3,0.1L371.7,330z M372.9,270l-3-0.1l0.6-30l3,0.1L372.9,270z
			 M373.6,210l-3,0l0.1-30l3,0L373.6,210z M373.7,150l-3,0l0.1-30l3,0L373.7,150z M373.8,90l-3,0l0.1-30l3,0L373.8,90z M373.9,30
			l-3,0L371,0l3,0L373.9,30z"/>
	</g>
	<g>
		<path class="st0" d="M317.8,1458.7l-3-0.1l0.8-26.4l3,0.1L317.8,1458.7z M319.5,1402.3l-3-0.1l0.9-30l3,0.1L319.5,1402.3z
			 M321.4,1342.3l-3-0.1l1-30l3,0.1L321.4,1342.3z M323.3,1282.4l-3-0.1l1-30l3,0.1L323.3,1282.4z M325.7,1222.4l-3-0.2l1.7-29.9
			l3,0.2L325.7,1222.4z M329.1,1162.6l-3-0.2l1.7-29.9l3,0.2L329.1,1162.6z M332.8,1102.7l-3-0.2l2.4-29.9l3,0.2L332.8,1102.7z
			 M337.6,1042.9l-3-0.3l2.9-29.9l3,0.3L337.6,1042.9z M343.5,983.2l-3-0.3l2.9-29.9l3,0.3L343.5,983.2z M349.3,923.4l-3-0.2l2-29.9
			l3,0.2L349.3,923.4z M353.3,863.6l-3-0.2l0.2-2.8l1.8-27.1l3,0.2L353.3,863.6z M357.2,803.7l-3-0.2l1.9-29.9l3,0.2L357.2,803.7z"
			/>
	</g>
	<g>
		<rect x="286.7" y="1456.7" class="st0" width="62.3" height="4"/>
	</g>
	<g>
		<path class="st0" d="M348.5,1570.6v-55.3l2.2-69.2h24.2l-0.9,67.3l-5.5,19.3l-5.7,16.8L348.5,1570.6z M351.7,1447.2l-2.2,68.2v52
			l12.4-18.3l5.6-16.6l5.5-19.2l0.8-66.1H351.7z"/>
	</g>
	<g>
		
			<rect x="360.1" y="1518" transform="matrix(0.5623 0.8269 -0.8269 0.5623 1423.105 371.5196)" class="st0" width="1" height="24.4"/>
	</g>
	<g>
		
			<rect x="356.5" y="1535" transform="matrix(0.6005 0.7996 -0.7996 0.6005 1378.0846 331.8114)" class="st0" width="1" height="20"/>
	</g>
	<g>
		<path class="st0" d="M347,1479.6l-5-0.1l0-2l5,0.1L347,1479.6z M337,1479.4l-5-0.1l0-2l5,0.1L337,1479.4z M327,1479.1l-5-0.1l0-2
			l5,0.1L327,1479.1z M317,1478.9l-5-0.1l0-2l5,0.1L317,1478.9z M307,1478.6l-5-0.1l0-2l5,0.1L307,1478.6z M297,1478.4l-5-0.1l0-2
			l5,0.1L297,1478.4z M287,1478.1l-5-0.1l0-2l5,0.1L287,1478.1z"/>
	</g>
	<g>
		<path class="st0" d="M419,1481.7l-4.7-0.2l0.1-2l4.7,0.2L419,1481.7z M409.3,1481.2l-5-0.2l0.1-2l5,0.2L409.3,1481.2z
			 M399.3,1480.8l-5-0.2l0.1-2l5,0.2L399.3,1480.8z M389.3,1480.3l-5-0.2l0.1-2l5,0.2L389.3,1480.3z M379.3,1479.9l-5-0.2l0.1-2
			l5,0.2L379.3,1479.9z"/>
	</g>
	<g>
		<path class="st0" d="M417.3,1514.3h-3.8v-2h3.8V1514.3z M408.5,1514.3h-5v-2h5V1514.3z M398.5,1514.3h-5v-2h5V1514.3z
			 M388.5,1514.3h-5v-2h5V1514.3z M378.5,1514.3h-5v-2h5V1514.3z"/>
	</g>
	<g>
		<path class="st0" d="M347.6,1512.3l-5-0.1l0-2l5,0.1L347.6,1512.3z M337.6,1512.1l-5-0.1l0-2l5,0.1L337.6,1512.1z M327.6,1511.9
			l-5-0.1l0-2l5,0.1L327.6,1511.9z M317.7,1511.7l-5-0.1l0-2l5,0.1L317.7,1511.7z M307.7,1511.5l-5-0.1l0-2l5,0.1L307.7,1511.5z
			 M297.7,1511.3l-5-0.1l0-2l5,0.1L297.7,1511.3z M287.7,1511l-5-0.1l0-2l5,0.1L287.7,1511z"/>
	</g>
	<g>
		<path class="st0" d="M274,1945.3l-2,0l0-2l2,0L274,1945.3z M274.1,1938.3l-2,0l0-5l2,0L274.1,1938.3z M274.2,1928.3l-2,0l0-5l2,0
			L274.2,1928.3z M274.3,1918.3l-2,0l0-5l2,0L274.3,1918.3z M274.4,1908.3l-2,0l0-5l2,0L274.4,1908.3z M274.5,1898.3l-2,0l0-5l2,0
			L274.5,1898.3z M274.6,1888.3l-2,0l0-5l2,0L274.6,1888.3z M274.7,1878.3l-2,0l0-5l2,0L274.7,1878.3z M274.7,1868.3l-2,0l0-5l2,0
			L274.7,1868.3z M274.8,1858.3l-2,0l0-5l2,0L274.8,1858.3z M274.9,1848.3l-2,0l0-5l2,0L274.9,1848.3z M275,1838.3l-2,0l0-5l2,0
			L275,1838.3z M275.1,1828.3l-2,0l0-5l2,0L275.1,1828.3z M275.2,1818.3l-2,0l0-5l2,0L275.2,1818.3z M275.3,1808.3l-2,0l0-5l2,0
			L275.3,1808.3z M275.4,1798.3l-2,0l0-5l2,0L275.4,1798.3z M275.5,1788.3l-2,0l0-5l2,0L275.5,1788.3z M275.6,1778.3l-2,0l0-5l2,0
			L275.6,1778.3z M275.7,1768.3l-2,0l0-5l2,0L275.7,1768.3z M275.8,1758.3l-2,0l0-5l2,0L275.8,1758.3z M275.9,1748.3l-2,0l0-5l2,0
			L275.9,1748.3z M276,1738.3l-2,0l0-5l2,0L276,1738.3z M276.1,1728.3l-2,0l0-5l2,0L276.1,1728.3z M276.2,1718.3l-2,0l0-5l2,0
			L276.2,1718.3z M276.3,1708.3l-2,0l0-5l2,0L276.3,1708.3z M276.4,1698.3l-2,0l0-5l2,0L276.4,1698.3z M276.5,1688.3l-2,0l0-5l2,0
			L276.5,1688.3z M276.6,1678.3l-2,0l0-5l2,0L276.6,1678.3z M276.7,1668.3l-2,0l0-5l2,0L276.7,1668.3z M276.8,1658.3l-2,0l0-5l2,0
			L276.8,1658.3z M276.9,1648.3l-2,0l0-5l2,0L276.9,1648.3z M277,1638.3l-2,0l0-5l2,0L277,1638.3z M277.1,1628.3l-2,0l0-5l2,0
			L277.1,1628.3z M277.2,1618.3l-2,0l0-5l2,0L277.2,1618.3z M277.3,1608.3l-2,0l0-5l2,0L277.3,1608.3z M277.4,1598.3l-2,0l0-5l2,0
			L277.4,1598.3z M277.5,1588.3l-2,0l0-5l2,0L277.5,1588.3z M277.6,1578.3l-2,0l0-5l2,0L277.6,1578.3z M277.7,1568.3l-2,0l0-5l2,0
			L277.7,1568.3z M277.8,1558.3l-2,0l0-5l2,0L277.8,1558.3z M277.9,1548.3l-2,0l0-5l2,0L277.9,1548.3z M278,1538.3l-2,0l0-5l2,0
			L278,1538.3z"/>
	</g>
	<g>
		<path class="st0" d="M257,1717.7l-2,0l0.1-5l2,0L257,1717.7z M257.2,1707.7l-2,0l0.1-5l2,0L257.2,1707.7z M257.4,1697.7l-2,0
			l0.1-5l2,0L257.4,1697.7z M257.6,1687.7l-2,0l0.1-5l2,0L257.6,1687.7z M257.8,1677.7l-2,0l0.1-5l2,0L257.8,1677.7z M257.9,1667.7
			l-2,0l0.1-5l2,0L257.9,1667.7z M258.1,1657.7l-2,0l0.1-5l2,0L258.1,1657.7z M258.3,1647.7l-2,0l0.1-5l2,0L258.3,1647.7z
			 M258.5,1637.7l-2,0l0.1-5l2,0L258.5,1637.7z M258.7,1627.7l-2,0l0.1-5l2,0L258.7,1627.7z M258.8,1617.7l-2,0l0.1-5l2,0
			L258.8,1617.7z M259,1607.7l-2,0l0.1-5l2,0L259,1607.7z M259.2,1597.7l-2,0l0.1-5l2,0L259.2,1597.7z M259.4,1587.7l-2,0l0.1-5l2,0
			L259.4,1587.7z M259.6,1577.7l-2,0l0.1-5l2,0L259.6,1577.7z"/>
	</g>
	<g>
		<path class="st0" d="M257,1868.7h-2v-5h2V1868.7z M257,1858.7h-2v-5h2V1858.7z M257,1848.7h-2v-5h2V1848.7z M257,1838.7h-2v-5h2
			V1838.7z M257,1828.7h-2v-5h2V1828.7z M257,1818.7h-2v-5h2V1818.7z M257,1808.7h-2v-5h2V1808.7z M257,1798.7h-2v-5h2V1798.7z
			 M257,1788.7h-2v-5h2V1788.7z M257,1778.7h-2v-5h2V1778.7z"/>
	</g>
	<g>
		<path class="st0" d="M216.7,1718l-2-0.1l0.1-5l2,0.1L216.7,1718z M217,1708l-2-0.1l0.1-5l2,0.1L217,1708z M217.3,1698l-2-0.1
			l0.1-5l2,0.1L217.3,1698z M217.5,1688l-2-0.1l0.1-5l2,0.1L217.5,1688z M217.8,1678l-2-0.1l0.1-5l2,0.1L217.8,1678z M218.1,1668
			l-2-0.1l0.1-5l2,0.1L218.1,1668z M218.4,1658l-2-0.1l0.1-5l2,0.1L218.4,1658z M218.7,1648l-2-0.1l0.1-5l2,0.1L218.7,1648z
			 M219,1638l-2-0.1l0.1-5l2,0.1L219,1638z M219.2,1628l-2-0.1l0.1-5l2,0.1L219.2,1628z M219.5,1618l-2-0.1l0.1-5l2,0.1L219.5,1618z
			"/>
	</g>
	<g>
		<path class="st0" d="M897,4404.7l-1.1-4.7l2-0.4l1.1,4.7L897,4404.7z M894.9,4395.1l-1.1-4.9l2-0.4l1.1,4.9L894.9,4395.1z
			 M892.7,4385.4l-1.1-4.9l2-0.4l1.1,4.9L892.7,4385.4z M890.5,4375.6l-1.1-4.9l2-0.4l1.1,4.9L890.5,4375.6z M888.3,4365.9l-1.1-4.9
			l2-0.4l1.1,4.9L888.3,4365.9z M886.1,4356.1l-1.1-4.9l2-0.4l1.1,4.9L886.1,4356.1z"/>
	</g>
	<g>
		<path class="st0" d="M914,4408.6l-0.7-4.9l2-0.3l0.7,4.9L914,4408.6z M912.6,4398.8l-0.7-4.9l2-0.3l0.7,4.9L912.6,4398.8z
			 M911.1,4388.9l-0.7-4.9l2-0.3l0.7,4.9L911.1,4388.9z M909.7,4379l-0.7-4.9l2-0.3l0.7,4.9L909.7,4379z M908.2,4369.1l-0.2-1.4
			l2-0.3l0.2,1.4L908.2,4369.1z"/>
	</g>
	<g>
		<path class="st0" d="M972.6,4507.9l-0.8-1.8l1.8-0.8l0.8,1.8L972.6,4507.9z M970.3,4502.4l-1.6-3.7l1.8-0.8l1.6,3.7L970.3,4502.4z
			 M967.1,4495l-1.6-3.7l1.8-0.8l1.6,3.7L967.1,4495z M964,4487.7l-1.6-3.7l1.8-0.8l1.6,3.7L964,4487.7z M960.9,4480.3l-1.6-3.7
			l1.8-0.8l1.6,3.7L960.9,4480.3z M957.8,4472.9l-1.6-3.7l1.8-0.8l1.6,3.7L957.8,4472.9z M954.6,4465.6l-1.6-3.7l1.8-0.8l1.6,3.7
			L954.6,4465.6z"/>
	</g>
	<g>
		<path class="st0" d="M947.6,4518.5l-1.9-3.3l1.7-1l1.9,3.3L947.6,4518.5z M943.7,4511.8l-2-3.4l1.7-1l2,3.4L943.7,4511.8z
			 M939.6,4504.9l-2-3.4l1.7-1l2,3.4L939.6,4504.9z M935.5,4498.1l-2-3.4l1.7-1l2,3.4L935.5,4498.1z M931.4,4491.2l-2-3.4l1.7-1
			l2,3.4L931.4,4491.2z M927.3,4484.3l-2-3.4l1.7-1l2,3.4L927.3,4484.3z M923.2,4477.4l-2-3.4l1.7-1l2,3.4L923.2,4477.4z"/>
	</g>
	<g>
		<path class="st0" d="M960.2,4590.1l-0.2-1.5l2-0.3l0.2,1.5L960.2,4590.1z M959.4,4584.7l-0.6-4l2-0.3l0.6,4L959.4,4584.7z
			 M958.2,4576.8l-0.6-4l2-0.3l0.6,4L958.2,4576.8z M957.1,4568.9l-0.6-4l2-0.3l0.6,4L957.1,4568.9z M955.9,4560.9l-0.6-4l2-0.3
			l0.6,4L955.9,4560.9z M954.7,4553l-0.6-4l2-0.3l0.6,4L954.7,4553z M953.6,4545.1l-0.6-4l2-0.3l0.6,4L953.6,4545.1z"/>
	</g>
	<g>
		<path class="st0" d="M992,4597.7l-0.2-1.1l2-0.3l0.2,1.1L992,4597.7z M991.2,4592.6l-0.7-3.9l2-0.3l0.7,3.9L991.2,4592.6z
			 M989.9,4584.7l-0.7-3.9l2-0.3l0.7,3.9L989.9,4584.7z M988.6,4576.8l-0.7-3.9l2-0.3l0.7,3.9L988.6,4576.8z M987.3,4568.9l-0.7-3.9
			l2-0.3l0.7,3.9L987.3,4568.9z M986,4561l-0.7-3.9l2-0.3l0.7,3.9L986,4561z M984.7,4553.1l-0.7-3.9l2-0.3l0.7,3.9L984.7,4553.1z"/>
	</g>
	<g>
		<path class="st0" d="M833.6,4644.8l-1.1-3.1l1.9-0.6l1.1,3.1L833.6,4644.8z M831.2,4637.9l-1.3-3.8l1.9-0.6l1.3,3.8L831.2,4637.9z
			 M828.6,4630.3l-1.3-3.8l1.9-0.6l1.3,3.8L828.6,4630.3z M826,4622.8l-1.3-3.8l1.9-0.6l1.3,3.8L826,4622.8z M823.4,4615.2l-1.3-3.8
			l1.9-0.6l1.3,3.8L823.4,4615.2z M820.8,4607.6l-1.3-3.8l1.9-0.6l1.3,3.8L820.8,4607.6z M818.2,4600.1l-1.3-3.8l1.9-0.6l1.3,3.8
			L818.2,4600.1z M815.7,4592.5l-1.3-3.8l1.9-0.6l1.3,3.8L815.7,4592.5z M813.1,4584.9l-1.3-3.8l1.9-0.6l1.3,3.8L813.1,4584.9z
			 M810.5,4577.4l-1.3-3.8l1.9-0.6l1.3,3.8L810.5,4577.4z"/>
	</g>
	<g>
		<path class="st0" d="M817.5,4647.1l-1.4-3.7l1.9-0.7l1.4,3.7L817.5,4647.1z M814.6,4639.7l-1.4-3.7l1.9-0.7l1.4,3.7L814.6,4639.7z
			 M811.7,4632.2l-1.4-3.7l1.9-0.7l1.4,3.7L811.7,4632.2z M808.8,4624.8l-1.4-3.7l1.9-0.7l1.4,3.7L808.8,4624.8z M805.9,4617.3
			l-1.4-3.7l1.9-0.7l1.4,3.7L805.9,4617.3z M803,4609.8l-1.4-3.7l1.9-0.7l1.4,3.7L803,4609.8z"/>
	</g>
	<g>
		<path class="st0" d="M792,4671.1l-0.7-1l1.6-1.2l0.7,1L792,4671.1z M788.2,4666.2l-3-4l1.6-1.2l3,4L788.2,4666.2z M782.1,4658.3
			l-3-4l1.6-1.2l3,4L782.1,4658.3z M776,4650.3l-3-4l1.6-1.2l3,4L776,4650.3z"/>
	</g>
	<g>
		<path class="st0" d="M874.3,4742.4l-0.9-1.8l1.8-0.9l0.9,1.8L874.3,4742.4z M871.7,4737.1l-1.7-3.6l1.8-0.9l1.7,3.6L871.7,4737.1z
			 M868.3,4729.8l-1.7-3.6l1.8-0.9l1.7,3.6L868.3,4729.8z M864.8,4722.6l-1.7-3.6l1.8-0.9l1.7,3.6L864.8,4722.6z M861.3,4715.4
			l-1.7-3.6l1.8-0.9l1.7,3.6L861.3,4715.4z M857.8,4708.2l-1.7-3.6l1.8-0.9l1.7,3.6L857.8,4708.2z M854.3,4701l-1.7-3.6l1.8-0.9
			l1.7,3.6L854.3,4701z"/>
	</g>
	<g>
		<path class="st0" d="M855.3,4735.7l-1.4-3l1.8-0.8l1.4,3L855.3,4735.7z M852.2,4729l-1.7-3.6l1.8-0.8l1.7,3.6L852.2,4729z
			 M848.8,4721.8l-1.7-3.6l1.8-0.8l1.7,3.6L848.8,4721.8z M845.4,4714.5l-1.7-3.6l1.8-0.8l1.7,3.6L845.4,4714.5z M842,4707.3
			l-1.7-3.6l1.8-0.8l1.7,3.6L842,4707.3z"/>
	</g>
	<g>
		<path class="st0" d="M860.5,4684l-0.5-1.9l3.9-0.9l0.5,1.9L860.5,4684z M868.3,4682.1l-0.5-1.9l3.9-0.9l0.5,1.9L868.3,4682.1z
			 M876,4680.2l-0.5-1.9l3.9-0.9l0.5,1.9L876,4680.2z M883.8,4678.3l-0.5-1.9l3.9-0.9l0.5,1.9L883.8,4678.3z M891.6,4676.4l-0.5-1.9
			l3.9-0.9l0.5,1.9L891.6,4676.4z"/>
	</g>
	<g>
		<path class="st0" d="M846,4645.5l-0.5-1.9l3.9-1l0.5,1.9L846,4645.5z M853.8,4643.6l-0.5-1.9l3.9-1l0.5,1.9L853.8,4643.6z
			 M861.5,4641.7l-0.5-1.9l3.9-1l0.5,1.9L861.5,4641.7z M869.3,4639.8l-0.5-1.9l3.9-1l0.5,1.9L869.3,4639.8z M877.1,4637.9l-0.5-1.9
			l3.9-1l0.5,1.9L877.1,4637.9z M884.8,4636l-0.5-1.9l3.9-1l0.5,1.9L884.8,4636z M892.6,4634.1l-0.5-1.9l2.4-0.6l0.5,1.9
			L892.6,4634.1z"/>
	</g>
	<g>
		<path class="st0" d="M904.3,4630.7l-0.5-1.9l3.9-1l0.5,1.9L904.3,4630.7z M912,4628.7l-0.5-1.9l3.9-1l0.5,1.9L912,4628.7z
			 M919.7,4626.6l-0.5-1.9l3.9-1l0.5,1.9L919.7,4626.6z M927.5,4624.6l-0.5-1.9l3.9-1l0.5,1.9L927.5,4624.6z M935.2,4622.5l-0.5-1.9
			l3.9-1l0.5,1.9L935.2,4622.5z M942.9,4620.5l-0.5-1.9l1.1-0.3l0.5,1.9L942.9,4620.5z"/>
	</g>
	<g>
		<path class="st0" d="M916,4668.5l-0.5-1.9l1.4-0.4l0.5,1.9L916,4668.5z M921.2,4667.1l-0.5-1.9l3.9-1l0.5,1.9L921.2,4667.1z
			 M929,4665l-0.5-1.9l3.9-1l0.5,1.9L929,4665z M936.7,4662.9l-0.5-1.9l3.9-1l0.5,1.9L936.7,4662.9z M944.4,4660.8l-0.5-1.9l3.9-1
			l0.5,1.9L944.4,4660.8z M952.1,4658.8l-0.5-1.9l3.9-1l0.5,1.9L952.1,4658.8z"/>
	</g>
	<g>
		<path class="st0" d="M1006,4746.4l-1.1-3.8l1.9-0.6l1.1,3.8L1006,4746.4z M1003.8,4738.8l-1.1-3.8l1.9-0.6l1.1,3.8L1003.8,4738.8z
			 M1001.6,4731.1l-1.1-3.8l1.9-0.6l1.1,3.8L1001.6,4731.1z M999.3,4723.4l-1.1-3.8l1.9-0.6l1.1,3.8L999.3,4723.4z M997.1,4715.7
			l-1.1-3.8l1.9-0.6l1.1,3.8L997.1,4715.7z M994.9,4708l-1.1-3.8l1.9-0.6l1.1,3.8L994.9,4708z M992.6,4700.4l-1.1-3.8l1.9-0.6
			l1.1,3.8L992.6,4700.4z M990.4,4692.7l-1.1-3.8l1.9-0.6l1.1,3.8L990.4,4692.7z M988.2,4685l-1.1-3.8l1.9-0.6l1.1,3.8L988.2,4685z
			 M985.9,4677.3l-1.1-3.8l1.9-0.6l1.1,3.8L985.9,4677.3z M983.7,4669.6l-1.1-3.8l1.9-0.6l1.1,3.8L983.7,4669.6z"/>
	</g>
	<g>
		<path class="st0" d="M1009.6,4710.7l-1.2-3.8l1.9-0.6l1.2,3.8L1009.6,4710.7z M1007.3,4703l-1.2-3.8l1.9-0.6l1.2,3.8L1007.3,4703z
			 M1005,4695.4l-1.2-3.8l1.9-0.6l1.2,3.8L1005,4695.4z M1002.6,4687.7l-1.2-3.8l1.9-0.6l1.2,3.8L1002.6,4687.7z M1000.3,4680.1
			l-1.2-3.8l1.9-0.6l1.2,3.8L1000.3,4680.1z M997.9,4672.4l-1.2-3.8l1.9-0.6l1.2,3.8L997.9,4672.4z M995.6,4664.8l-1.2-3.8l1.9-0.6
			l1.2,3.8L995.6,4664.8z M993.2,4657.1l-1.2-3.8l1.9-0.6l1.2,3.8L993.2,4657.1z"/>
	</g>
	<g>
		
			<rect x="274.9" y="1288.5" transform="matrix(0.9996 2.783484e-002 -2.783484e-002 0.9996 37.8513 -7.1815)" class="st0" width="4" height="135.1"/>
	</g>
	<g>
		<polygon class="st0" points="307,1451.3 286.7,1451.3 286.7,1449.3 303,1449.3 287.8,1429.8 302.9,1422 289.3,1414.7 290.2,1413 
			307.1,1422 290.9,1430.5 		"/>
	</g>
	<g>
		
			<rect x="-2.3" y="1684.5" transform="matrix(0.9999 1.507366e-002 -1.507366e-002 0.9999 25.4177 -1.2732)" class="st0" width="199" height="2"/>
	</g>
	<g>
		<path class="st0" d="M248.1,1776.4c-6.1,0-13.7-11.5-14.7-13.3c-4.4-8.3-36.9-24.7-37.2-24.9c-10.6-4.3-14-14.2-14.2-14.6l1.9-0.6
			c0,0.1,3.3,9.5,13.1,13.4c1.4,0.7,33.5,16.9,38.2,25.7c1.9,3.6,9.4,13.3,13.5,12.2l0.3,0c0,0,3.6,0,5.8-2.4
			c1.3-1.5,1.8-3.5,1.6-6.1l0-0.1v-43H191L43,1720l0-2l148,2.7h67.3v44.9c0.3,3.2-0.4,5.8-2.1,7.6c-2.5,2.8-6.4,3.1-7.1,3.1
			C248.8,1776.4,248.5,1776.4,248.1,1776.4z"/>
	</g>
	<g>
		<path class="st0" d="M748.2,4182.1l-7.1-23.7l2.9-0.9l7.1,23.7L748.2,4182.1z M732.6,4129.7l-8.6-28.7l2.9-0.9l8.6,28.7
			L732.6,4129.7z M715.4,4072.2l-4.8-16.1l-3.4-12.8l2.9-0.8l3.4,12.8l4.8,16L715.4,4072.2z M699.4,4014.3l-7.8-29l2.9-0.8l7.8,29
			L699.4,4014.3z M683.8,3956.3l-7.8-29l2.9-0.8l7.8,29L683.8,3956.3z M668.3,3898.4l-7.8-29l2.9-0.8l7.8,29L668.3,3898.4z
			 M652.8,3840.4l-7.7-29l2.9-0.8l7.7,29L652.8,3840.4z M637.4,3782.4l-7.7-29l2.9-0.8l7.7,29L637.4,3782.4z M622,3724.4l-7.7-29
			l2.9-0.8l7.7,29L622,3724.4z M606.7,3666.4l-7.7-29l2.9-0.8l7.7,29L606.7,3666.4z M591.2,3608.5l-7.9-29l2.9-0.8l7.9,29
			L591.2,3608.5z M575.5,3550.6l-7.9-28.9l2.9-0.8l7.9,28.9L575.5,3550.6z M559.8,3492.7l-7.9-28.9l2.9-0.8l7.9,28.9L559.8,3492.7z
			 M544,3434.8l-0.5-1.7l-7.5-27.2l2.9-0.8l7.9,28.9L544,3434.8z M528.1,3376.9l-7.9-28.9l2.9-0.8l7.9,28.9L528.1,3376.9z
			 M512.3,3319l-7.9-28.9l2.9-0.8l7.9,28.9L512.3,3319z M496.4,3261.2l-7.9-28.9l2.9-0.8l7.9,28.9L496.4,3261.2z M480.5,3203.3
			l-6.3-22.9l-1.6-6l2.9-0.8l1.6,6l6.3,22.9L480.5,3203.3z M465.1,3145.3l-7.6-29l2.9-0.8l7.6,29L465.1,3145.3z M449.9,3087.3
			l-7.6-29l2.9-0.8l7.6,29L449.9,3087.3z M434.7,3029.2l-7.6-29l2.9-0.8l7.6,29L434.7,3029.2z M419.6,2971.2l-7.5-29l2.9-0.8l7.5,29
			L419.6,2971.2z M404.6,2913.1l-7.5-29l2.9-0.8l7.5,29L404.6,2913.1z M390.2,2854.8l-6.5-29.3l2.9-0.7l6.5,29.3L390.2,2854.8z
			 M377.2,2796.2l-6.5-29.3l2.9-0.7l6.5,29.3L377.2,2796.2z M364.1,2737.6l-6.5-29.3l2.9-0.7l6.5,29.3L364.1,2737.6z M351.1,2679.1
			l-6.5-29.3l2.9-0.7l6.5,29.3L351.1,2679.1z M338.6,2620.3l-5.4-29.5l3-0.5l5.4,29.5L338.6,2620.3z M327.8,2561.3l-5.4-29.5l3-0.5
			l5.4,29.5L327.8,2561.3z M316.9,2502.3l-5.4-29.5l3-0.5l5.4,29.5L316.9,2502.3z M306.5,2443.1l-3-29.9l3-0.3l3,29.9L306.5,2443.1z
			 M300.5,2383.4c-0.1-1.7-0.2-4.1-0.2-6.9c0-5.6,0.2-13.5,0.7-23.3l3,0.2c-0.5,9.8-0.7,17.5-0.7,23.1c0,2.8,0.1,5.1,0.2,6.7
			L300.5,2383.4z M305.8,2323.3l-3,0l0.4-30l3,0L305.8,2323.3z M306.7,2263.3l-3,0l0.4-30l3,0L306.7,2263.3z M307.5,2203.3l-3,0
			l0.4-30l3,0L307.5,2203.3z M308.3,2143.3l-3,0l0.4-30l3,0L308.3,2143.3z M309.1,2083.3l-3,0l0.4-30l3,0L309.1,2083.3z M310,2023.3
			l-3,0l0.4-30l3,0L310,2023.3z M310.8,1963.3l-3,0l0.4-30l3,0L310.8,1963.3z M311.6,1903.3l-3,0l0.4-30l3,0L311.6,1903.3z
			 M312.5,1843.3l-3,0l0.4-30l3,0L312.5,1843.3z M313.3,1783.3l-3,0l0.4-30l3,0L313.3,1783.3z M314.1,1723.3l-3,0l0.4-30l3,0
			L314.1,1723.3z M314.9,1663.3l-3,0l0.4-30l3,0L314.9,1663.3z M315.8,1603.3l-3,0l0.4-30l3,0L315.8,1603.3z M316.6,1543.4l-3,0
			l0.4-30l3,0L316.6,1543.4z"/>
	</g>
	<g>
		<path class="st0" d="M346,1811l-3,0l0.5-30l3,0L346,1811z M346.9,1751l-3,0l0.5-30l3,0L346.9,1751z M347.8,1691l-3,0l0.5-30l3,0
			L347.8,1691z M348.7,1631l-3,0l0.5-30l3,0L348.7,1631z"/>
	</g>
	<g>
		<rect x="192.7" y="1687" class="st0" width="4" height="30"/>
	</g>
	<g>
		<rect x="200.6" y="1757.6" transform="matrix(0.77 0.638 -0.638 0.77 1172.2146 267.1417)" class="st0" width="30" height="4"/>
	</g>
	<g>
		
			<rect x="195.5" y="1766.7" transform="matrix(0.7831 0.6219 -0.6219 0.7831 1145.4382 253.0028)" class="st0" width="28.9" height="4"/>
	</g>
	<g>
		
			<rect x="189.6" y="1775.8" transform="matrix(0.7954 0.6061 -0.6061 0.7954 1119.271 239.6889)" class="st0" width="30" height="4"/>
	</g>
	<g>
		
			<rect x="184.7" y="1785.1" transform="matrix(0.7777 0.6286 -0.6286 0.7777 1167.72 271.6919)" class="st0" width="30" height="4"/>
	</g>
	<g>
		<polygon class="st0" points="424.3,1885 420.3,1885 420.3,1846 344.3,1844.2 344.4,1840.3 424.3,1842 		"/>
	</g>
	<g>
		
			<rect x="340.2" y="1842.2" transform="matrix(1 9.439684e-003 -9.439684e-003 1 18.7416 -3.1368)" class="st0" width="3" height="283.1"/>
	</g>
	<g>
		<rect x="375.5" y="1937.3" class="st0" width="3" height="70.7"/>
	</g>
	<g>
		<path class="st0" d="M344.5,2471.9c-3-15.5-7.5-93.7-7.7-97.8c-1.6-12.2,0.2-98.2,0.3-101.8l3,0.1c0,0.9-2,89.7-0.3,101.4l0,0.1
			c0,0.8,4.7,82.1,7.6,97.5L344.5,2471.9z"/>
	</g>
	<g>
		
			<rect x="344.2" y="2490.8" transform="matrix(0.2425 0.9701 -0.9701 0.2425 2682.7886 1548.6522)" class="st0" width="11" height="3"/>
	</g>
	<g>
		
			<rect x="350.2" y="2511.4" transform="matrix(0.3488 0.9372 -0.9372 0.3488 2585.6516 1304.6958)" class="st0" width="7.6" height="3"/>
	</g>
	<g>
		
			<rect x="346.9" y="2541.3" transform="matrix(0.3254 0.9456 -0.9456 0.3254 2649.5984 1371.9341)" class="st0" width="32.8" height="3"/>
	</g>
	<g>
		
			<rect x="349.3" y="2557.3" transform="matrix(4.129496e-002 0.9991 -0.9991 4.129496e-002 2910.8921 2083.9814)" class="st0" width="40.4" height="3"/>
	</g>
	<g>
		
			<rect x="373.8" y="2652.5" transform="matrix(0.1747 0.9846 -0.9846 0.1747 2927.9465 1815.0056)" class="st0" width="15" height="3"/>
	</g>
	<g>
		<path class="st0" d="M378.5,2648.5l-1.1-7.3l3-0.4l1.1,7.3L378.5,2648.5z M375.3,2626.4l-2.2-14.8l3-0.4l2.2,14.8L375.3,2626.4z
			 M371,2596.7l-2.2-14.8l3-0.4l2.2,14.8L371,2596.7z"/>
	</g>
	<g>
		
			<rect x="397.8" y="2801.9" transform="matrix(0.2392 0.971 -0.971 0.2392 3035.1748 1733.12)" class="st0" width="27.6" height="3"/>
	</g>
	<g>
		
			<rect x="350.3" y="2917.1" transform="matrix(0.2481 0.9687 -0.9687 0.2481 3158.2002 1768.2512)" class="st0" width="179.4" height="3"/>
	</g>
	<g>
		
			<rect x="409.5" y="3091.9" transform="matrix(0.2583 0.9661 -0.9661 0.2583 3348.9021 1824.9286)" class="st0" width="152.9" height="3"/>
	</g>
	<g>
		
			<rect x="498.4" y="3171.9" transform="matrix(0.1807 0.9835 -0.9835 0.1807 3534.6277 2103.7776)" class="st0" width="12.5" height="3"/>
	</g>
	<g>
		
			<rect x="504.8" y="3179.3" transform="matrix(0.2425 0.9701 -0.9701 0.2425 3472.0876 1914.5321)" class="st0" width="10.3" height="3"/>
	</g>
	<g>
		
			<rect x="504.6" y="3190.5" transform="matrix(0.2316 0.9728 -0.9728 0.2316 3497.071 1956.5361)" class="st0" width="10.8" height="3"/>
	</g>
	<g>
		
			<rect x="510.6" y="3201" transform="matrix(0.2957 0.9553 -0.9553 0.2957 3422.8184 1762.5259)" class="st0" width="11" height="3"/>
	</g>
	<g>
		<polygon class="st0" points="557.6,3363.6 529.1,3260.5 528,3260.5 523.8,3249.8 527.3,3248 525.8,3240.3 522.4,3240.3 
			519,3229.7 521.8,3227.7 519.5,3220 516.5,3218.3 513.1,3208.2 515.9,3207.3 519,3216.2 522,3218 525.2,3228.8 522.5,3230.8 
			524.6,3237.3 528.2,3237.3 530.7,3249.5 527.6,3251.2 530,3257.5 531.4,3257.5 560.4,3362.9 		"/>
	</g>
	<g>
		<polygon class="st0" points="851.1,4444.1 829.8,4366.4 812.6,4304.4 787.1,4216 765,4129.6 748.6,4071.3 745.5,4071.8 
			743,4061.5 745,4058.9 742.4,4050.3 740,4050.3 737,4039.7 739.5,4036.3 737.8,4029.4 736.2,4029.4 716.6,3956 679,3815.5 
			675.7,3816.6 673.4,3805.3 677.5,3803.8 676.1,3799.2 671.8,3800.2 667.9,3785.1 670.9,3784.4 668,3775.5 665.9,3776.4 
			662.8,3765 665.2,3764.2 664.7,3761.2 644.5,3683.3 641.1,3684 637.5,3672.1 640.5,3667.7 638.8,3662.5 635.5,3663.1 
			631.3,3649.7 635.9,3647.4 633.7,3641.7 630.5,3642.5 625.4,3629.5 629.6,3627.4 627.7,3621.6 625.3,3621.6 621.2,3610.2 
			624.6,3608.2 622.7,3601.3 618.2,3599.3 615.9,3590.4 619.2,3587.9 617.3,3581.2 614,3579.1 611,3569.8 613.6,3566.4 612.1,3560 
			609.1,3560 605.6,3547.8 607.3,3546.8 606.4,3546.3 606.2,3545.7 572.8,3418.6 570.3,3419.5 567.1,3406.9 570.5,3405.7 
			568.4,3398.1 565.7,3398.1 563.5,3389.6 566,3387.9 562.7,3378 559.4,3378 557.6,3371.7 560.4,3370.8 561.6,3375 564.8,3375 
			569.5,3389.1 567,3390.9 568,3395.1 570.6,3395.1 574.2,3407.6 570.7,3408.8 572.4,3415.5 574.9,3414.7 609,3544.3 613.2,3546.7 
			609.1,3549.2 611.4,3557 614.4,3557 616.9,3567.1 614.3,3570.4 616.5,3577.1 619.9,3579.3 622.6,3589.1 619.3,3591.6 
			620.8,3597.2 625.3,3599.2 628.1,3609.6 624.8,3611.5 627.4,3618.6 629.8,3618.6 633.2,3628.9 629.1,3631 632.3,3639 
			635.5,3638.1 639.6,3648.8 634.9,3651.3 637.5,3659.7 640.9,3659 643.8,3668.3 640.8,3672.6 643.2,3680.5 646.7,3679.9 
			667.6,3760.6 668.6,3766.3 666.4,3767 667.9,3772.3 669.8,3771.5 674.8,3786.6 671.6,3787.4 674,3796.6 678.1,3795.6 
			681.2,3805.7 676.9,3807.2 678,3812.7 681,3811.7 738.5,4026.4 740.2,4026.4 742.7,4037 740.3,4040.3 742.3,4047.3 744.6,4047.3 
			748.3,4059.6 746.3,4062.2 747.8,4068.4 750.7,4067.9 767.9,4128.8 790,4215.3 815.4,4303.6 832.7,4365.6 853.9,4443.4 		"/>
	</g>
	<g>
		
			<rect x="820" y="4419.9" transform="matrix(0.2668 0.9637 -0.9637 0.2668 4892.4316 2470.5835)" class="st0" width="5" height="61.7"/>
	</g>
	<g>
		
			<rect x="665.2" y="4328.1" transform="matrix(0.2539 0.9672 -0.9672 0.2539 4777.4326 2465.6379)" class="st0" width="250.7" height="3"/>
	</g>
	<g>
		<polygon class="st0" points="612.5,4758.9 611.5,4756.1 735.8,4714.1 761.6,4695.8 818.3,4651.8 820.2,4654.2 763.4,4698.2 
			737.2,4716.9 737,4716.9 		"/>
	</g>
	<g>
		
			<rect x="756.5" y="4696.9" transform="matrix(0.1862 0.9825 -0.9825 0.1862 5242.5845 3086.6284)" class="st0" width="3" height="22.4"/>
	</g>
	<g>
		<path class="st0" d="M781.9,4704.7l-0.4-3l19.8-2.9c0.8-0.1,16.6-1.5,21.9,0c1.1,0.2,18.8,3.2,32.1-7.7l1.9,2.3
			c-14.8,12.2-33.9,8.5-34.7,8.3l-0.1,0c-3.9-1.2-16.3-0.4-20.8,0.1L781.9,4704.7z"/>
	</g>
	<g>
		
			<rect x="803.8" y="4703.1" transform="matrix(0.9997 2.444895e-002 -2.444895e-002 0.9997 115.2925 -18.6212)" class="st0" width="30.7" height="5"/>
	</g>
	<g>
		
			<rect x="803.8" y="4711" transform="matrix(0.9995 3.259103e-002 -3.259103e-002 0.9995 154.053 -24.1935)" class="st0" width="30.7" height="5"/>
	</g>
	<g>
		
			<rect x="803.8" y="4719.8" transform="matrix(0.9993 3.799439e-002 -3.799439e-002 0.9993 180.0105 -27.714)" class="st0" width="30.7" height="5"/>
	</g>
	<g>
		<path class="st0" d="M842.1,4641.9l-2.2-7.1l3.8-1.2l2.2,7.1L842.1,4641.9z M835.3,4620.6l-4.5-14.3l3.8-1.2l4.5,14.3
			L835.3,4620.6z M826.2,4592l-4.5-14.3l3.8-1.2l4.5,14.3L826.2,4592z M817.1,4563.4l-4.5-14.3l3.8-1.2l4.5,14.3L817.1,4563.4z"/>
	</g>
	<g>
		<path class="st0" d="M881.1,4756.8l-3.3-9.9l3.8-1.3l3.3,9.9L881.1,4756.8z M874,4735.5l-3.8-11.4l3.8-1.3l3.8,11.4L874,4735.5z
			 M866.3,4712.8l-3.8-11.4l3.8-1.3l3.8,11.4L866.3,4712.8z"/>
	</g>
	<g>
		
			<rect x="941.8" y="4677.3" transform="matrix(0.2524 0.9676 -0.9676 0.2524 5251.4019 2598.2158)" class="st0" width="5" height="40.3"/>
	</g>
	<g>
		<path class="st0" d="M940.4,4790.6c-0.5,0-1.1-0.1-1.6-0.3c-2.9-1.3-4.2-5.9-4.3-6.4l-36.5-109.3l1.9-0.6l36.5,109.4
			c0.3,1.2,1.4,4.4,3.2,5.1c0.6,0.3,1.3,0.2,2.1-0.2l0.2-0.1l0.2,0c0,0,1.2-0.2,1.9-1.4c0.9-1.5,0.7-3.9-0.5-7.1l-32.5-109.9
			l1.9-0.6l32.5,109.8c1.5,3.8,1.6,6.8,0.3,8.8c-1,1.6-2.6,2.1-3.1,2.2C941.8,4790.5,941.1,4790.6,940.4,4790.6z"/>
	</g>
	<g>
		<polygon class="st0" points="1029.7,5062.3 1002.2,4986.8 975.9,4910.7 958.4,4858 960.3,4857.4 977.8,4910 1004.1,4986.2 
			1019.4,5028.3 1014.9,5013.1 997.7,4956.5 977.9,4889.8 922,4669.7 924,4669.3 979.8,4889.3 999.6,4955.9 1016.8,5012.5 
			1031.6,5061.7 		"/>
	</g>
	<g>
		
			<rect x="940.2" y="4837.3" transform="matrix(0.3335 0.9427 -0.9427 0.3335 5196.5405 2326.0864)" class="st0" width="26" height="2"/>
	</g>
	<g>
		
			<rect x="928.5" y="4806.5" transform="matrix(0.318 0.9481 -0.9481 0.318 5200.6494 2385.1748)" class="st0" width="27.8" height="2"/>
	</g>
	<g>
		
			<rect x="899.4" y="4756.1" transform="matrix(0.2393 0.9709 -0.9709 0.2393 5364.4185 2666.9177)" class="st0" width="161.6" height="2"/>
	</g>
	<g>
		
			<rect x="954.5" y="4660.5" transform="matrix(0.2532 0.9674 -0.9674 0.2532 5225.5425 2554.6394)" class="st0" width="7.2" height="3"/>
	</g>
	<g>
		<path class="st0" d="M967.4,4676c-4.2,0-6.9-3-7.9-4.9l2.7-1.3c0.2,0.4,2.3,4.2,6.9,3l0.2,0c0.3,0,7-0.9,9.3-11.7l2.9,0.6
			c-2.7,12.3-10.6,13.9-11.8,14.1C968.9,4675.9,968.1,4676,967.4,4676z"/>
	</g>
	<g>
		<path class="st0" d="M1009.4,4624.2l-1.9-2.3l17.3-14.2c0.6-0.4,1.9-1.7,1.9-3c0-0.7-0.5-1.5-1.5-2.2l-30-1l0.1-3l30.9,1l0.4,0.3
			c2,1.4,3.1,3.1,3.1,4.9c0,3-2.7,5.1-3.1,5.4L1009.4,4624.2z"/>
	</g>
	<g>
		<path class="st0" d="M944.2,4618.2c-6.2-11.1-2.5-17.2-1.7-18.3c3.1-6.5,17.1-4.2,18.6-3.9l-0.5,3c-3.5-0.6-13.7-1.6-15.4,2.3
			l-0.1,0.2l-0.1,0.2c-0.1,0.2-3.8,5,1.9,15.1L944.2,4618.2z"/>
	</g>
	<g>
		
			<rect x="867.1" y="4363.8" transform="matrix(0.2747 0.9615 -0.9615 0.2747 4831.5073 2325.3916)" class="st0" width="14.6" height="3"/>
	</g>
	<g>
		
			<rect x="874.5" y="4393.8" transform="matrix(0.2833 0.959 -0.959 0.2833 4847.4658 2304.0242)" class="st0" width="15.3" height="3"/>
	</g>
	<g>
		<path class="st0" d="M908.9,4474.9c-1.2,0-2.2-0.2-3.2-0.6c-2.7-1.1-3.4-3.4-3.5-3.6l-10-37.7l2.9-0.8l10,37.7l0,0
			c0,0,0.4,1.1,1.8,1.7c1.6,0.6,4.8,0.7,10.7-2.6l1.5,2.6C915.1,4473.8,911.7,4474.9,908.9,4474.9z"/>
	</g>
	<g>
		<path class="st0" d="M954.5,4458.1l-0.9-2.9l23.3-7.3c1.1-0.4,3.5-1.6,3.7-2.9c0.2-0.9-0.9-2-1.7-2.7l-34.8-13.2l1.1-2.8
			l35.2,13.4l0.2,0.1c2.3,1.8,3.3,3.8,3,5.7c-0.6,3.4-5.2,5-5.8,5.2L954.5,4458.1z"/>
	</g>
	<g>
		<path class="st0" d="M937.2,4597.9l-1.5-5.6l2.9-0.8l1.5,5.6L937.2,4597.9z M931.8,4577.8l-3.9-14.5l2.9-0.8l3.9,14.5
			L931.8,4577.8z M924,4548.8l-3.9-14.5l2.9-0.8l3.9,14.5L924,4548.8z M916.2,4519.8l-3.9-14.5l2.9-0.8l3.9,14.5L916.2,4519.8z
			 M908.4,4490.9l-3.9-14.5l2.9-0.8l3.9,14.5L908.4,4490.9z"/>
	</g>
	<g>
		<path class="st0" d="M1266.2,4638.1c-1.1-1.1-2.3-2.2-3.6-3.3l2.6-3c1.4,1.2,2.6,2.4,3.8,3.6L1266.2,4638.1z M1250.8,4626.1
			c-3.9-2.4-8.3-4.8-13-7.2l1.8-3.6c4.8,2.4,9.3,4.9,13.3,7.3L1250.8,4626.1z M1224.2,4612.9c-4.4-1.8-9.1-3.6-13.9-5.3l1.3-3.8
			c4.9,1.7,9.7,3.5,14.1,5.4L1224.2,4612.9z M1196.1,4602.9c-7.5-2.3-12.5-3.5-12.6-3.5l-0.1,0c-0.5-0.1-1-0.3-1.7-0.4l0.9-3.9
			c0.7,0.2,1.4,0.3,1.9,0.5c0.6,0.2,5.5,1.4,12.7,3.5L1196.1,4602.9z M1032.4,4599.5l-0.2-4l15-0.8l0.2,4L1032.4,4599.5z
			 M1062.4,4597.8l-0.2-4l15-0.8l0.2,4L1062.4,4597.8z M1167.1,4597c-4.3-0.4-9.3-0.7-14.9-1.1l0.2-4c5.7,0.3,10.7,0.7,15.1,1.1
			L1167.1,4597z M1092.4,4596.2l-0.2-4l15-0.8l0.2,4L1092.4,4596.2z M1137.2,4595.2c-6.3-0.2-11.6-0.4-15-0.5l0.1-4
			c3.4,0.1,8.7,0.2,15.1,0.5L1137.2,4595.2z"/>
	</g>
	<g>
		<path class="st0" d="M951.3,4538.2c-0.3,0-7.5-1-9.4-6c-1.3-3.6,0.6-8,5.5-13.2l2.2,2.1c-4,4.3-5.7,7.8-4.8,10.2
			c1,2.7,5.3,3.9,6.9,4.1L951.3,4538.2z"/>
	</g>
	<g>
		<path class="st0" d="M1148,4552.3c-6.1,0-14-0.8-21.1-1.8l-59.2-2.3l-82.8-5.7l0.2-3l82.7,5.7l59.4,2.3c23,3.1,27.9,1.2,28.8,0.8
			l0-0.1l0.3-0.3c0.9-0.9,0.8-1.5,0.8-1.7c-0.7-2.9-9.5-6.4-15.4-8l-0.1,0l-94.6-33.7c-30.5-8.1-69.2,5.5-69.5,5.6l-1-2.8
			c1.6-0.6,40-14.1,71.4-5.7l0.1,0l94.6,33.7c2.8,0.8,16.1,4.6,17.5,10.2c0.3,1.1,0.2,2.7-1.4,4.4
			C1157.5,4551.6,1153.4,4552.3,1148,4552.3z"/>
	</g>
	<g>
		<polygon class="st0" points="1201.1,4523.4 1022.7,4456.8 983.4,4452.5 983.7,4449.5 1023.3,4453.9 1023.5,4453.9 1202.2,4520.6 
					"/>
	</g>
	<g>
		<path class="st0" d="M1022.8,4457.1l-31.8-12.2c0.2,1.1,0.1,2.1-0.2,3c-1.3,3.3-5.5,4.3-5.9,4.4l-0.6-2.9c0.8-0.2,3.2-1,3.8-2.5
			c0.4-1,0-2.2-1.2-3.8l-3-4.1l40,15.3L1022.8,4457.1z"/>
	</g>
	<g>
		
			<rect x="980.1" y="4469.8" transform="matrix(0.2088 0.978 -0.978 0.2088 5168.0869 2556.5659)" class="st0" width="47.9" height="5"/>
	</g>
	<g>
		<polygon class="st0" points="1227.6,4569.4 1199.9,4561.2 1160.3,4554.7 1160.7,4551.8 1196.2,4557.6 1161.5,4544.4 
			1162.5,4541.6 1228.5,4566.6 		"/>
	</g>
	<g>
		
			<rect x="1223.9" y="4588.9" transform="matrix(0.9343 0.3566 -0.3566 0.9343 1721.3877 -157.0378)" class="st0" width="125.5" height="3"/>
	</g>
	<g>
		<path class="st0" d="M1490.2,4636.5l-27.9-11l1.1-2.8l27.9,11L1490.2,4636.5z M1434.4,4614.6l-27.9-11l1.1-2.8l27.9,11
			L1434.4,4614.6z M1378.5,4592.6l-27.9-11l1.1-2.8l27.9,11L1378.5,4592.6z M1322.7,4570.6l-27.9-11l1.1-2.8l27.9,11L1322.7,4570.6z
			 M1266.9,4548.6l-27.9-11l1.1-2.8l27.9,11L1266.9,4548.6z"/>
	</g>
	<g>
		<path class="st0" d="M1492.1,4672.2l-20.2-8.6l-7.5-2.9l1.1-2.8l7.5,3l20.2,8.6L1492.1,4672.2z M1436.5,4649.7l-27.9-10.9l1.1-2.8
			l27.9,10.9L1436.5,4649.7z M1380.6,4627.8l-27.9-10.9l1.1-2.8l27.9,10.9L1380.6,4627.8z"/>
	</g>
	<g>
		
			<rect x="1000.5" y="4624.6" transform="matrix(0.7445 0.6676 -0.6676 0.7445 3353.5437 515.6651)" class="st0" width="5" height="30"/>
	</g>
	<g>
		
			<rect x="1008.4" y="4632.2" transform="matrix(0.7541 0.6568 -0.6568 0.7541 3300.8108 478.9432)" class="st0" width="5" height="30"/>
	</g>
	<g>
		
			<rect x="1017.1" y="4637.2" transform="matrix(0.7552 0.6555 -0.6555 0.7552 3299.3206 470.6585)" class="st0" width="5" height="30"/>
	</g>
	<g>
		
			<rect x="1024.9" y="4643.3" transform="matrix(0.7491 0.6624 -0.6624 0.7491 3343.4875 488.0192)" class="st0" width="5" height="30"/>
	</g>
	<g>
		
			<rect x="1032.7" y="4649.4" transform="matrix(0.7593 0.6507 -0.6507 0.7593 3284.4075 448.9951)" class="st0" width="5" height="30"/>
	</g>
	<g>
		<path class="st0" d="M1191.3,5407.3l-9.8-26.2l2.8-1.1l9.8,26.2L1191.3,5407.3z M1171.7,5354.8l-9.8-26.2l2.8-1.1l9.8,26.2
			L1171.7,5354.8z M1152.1,5302.4l-9.8-26.2l2.8-1.1l9.8,26.2L1152.1,5302.4z M1132.5,5249.9l-4.4-11.8l-4.7-14.7l2.9-0.9l4.7,14.6
			l4.4,11.8L1132.5,5249.9z M1114.8,5196.8l-8.6-26.7l2.9-0.9l8.6,26.7L1114.8,5196.8z M1097.5,5143.5l-8.8-26.6l2.8-0.9l8.8,26.6
			L1097.5,5143.5z M1080,5090.3l-8.8-26.6l2.8-0.9l8.8,26.6L1080,5090.3z M1062.5,5037.1l-8.8-26.6l2.8-0.9l8.8,26.6L1062.5,5037.1z
			 M1044.9,4983.9l-8.8-26.6l2.8-0.9l8.8,26.6L1044.9,4983.9z M1027.4,4930.7l-8.8-26.6l2.8-0.9l8.8,26.6L1027.4,4930.7z
			 M1009.8,4877.6l-8.8-26.6l2.8-0.9l8.8,26.6L1009.8,4877.6z"/>
	</g>
	<g>
		
			<rect x="1195.6" y="5448.3" transform="matrix(0.3659 0.9307 -0.9307 0.3659 5838.9014 2329.9944)" class="st0" width="28" height="3"/>
	</g>
	<g>
		<polygon class="st0" points="1415.8,6046.5 1308.2,5724.8 1224.3,5494.5 1227.2,5493.5 1311.1,5723.8 1418.7,6045.5 		"/>
	</g>
	<g>
		
			<rect x="994.5" y="5111" transform="matrix(0.3218 0.9468 -0.9468 0.3218 5551.0723 2474.9915)" class="st0" width="106.7" height="3"/>
	</g>
	<g>
		<path class="st0" d="M1433.8,6215.7l-7.3-21.8l2.8-1l7.3,21.8L1433.8,6215.7z M1417.6,6167.4l-8.9-26.5l2.8-1l8.9,26.5
			L1417.6,6167.4z M1399.7,6114.3l-8.9-26.5l2.8-1l8.9,26.5L1399.7,6114.3z M1381.9,6061.2l-8.9-26.5l2.8-1l8.9,26.5L1381.9,6061.2z
			 M1364,6008.2l-8.9-26.5l2.8-1l8.9,26.5L1364,6008.2z M1346.2,5955.1l-8.9-26.5l2.8-1l8.9,26.5L1346.2,5955.1z M1328.3,5902
			l-8.9-26.5l2.8-1l8.9,26.5L1328.3,5902z M1310.5,5848.9l-8.9-26.5l2.8-1l8.9,26.5L1310.5,5848.9z M1292.6,5795.8l-8.9-26.5l2.8-1
			l8.9,26.5L1292.6,5795.8z M1274.8,5742.8l-8.9-26.5l2.8-1l8.9,26.5L1274.8,5742.8z M1256.9,5689.7l-8.9-26.5l2.8-1l8.9,26.5
			L1256.9,5689.7z M1239.1,5636.6l-8.9-26.5l2.8-1l8.9,26.5L1239.1,5636.6z M1220.6,5583.8l-9.7-26.3l2.8-1l9.7,26.3L1220.6,5583.8z
			 M1201.2,5531.3l-9.7-26.3l2.8-1l9.7,26.3L1201.2,5531.3z M1181.8,5478.7l-9.7-26.3l2.8-1l9.7,26.3L1181.8,5478.7z M1162.4,5426.2
			l-9.7-26.3l2.8-1l9.7,26.3L1162.4,5426.2z M1143.1,5373.6l-9.7-26.3l2.8-1l9.7,26.3L1143.1,5373.6z M1123.5,5321.2l-9.9-26.2
			l2.8-1.1l9.9,26.2L1123.5,5321.2z M1103.7,5268.8l-9.9-26.2l2.8-1.1l9.9,26.2L1103.7,5268.8z M1083.8,5216.5l-9.9-26.2l2.8-1.1
			l9.9,26.2L1083.8,5216.5z"/>
	</g>
	<g>
		
			<rect x="1438" y="6249.7" transform="matrix(0.3344 0.9424 -0.9424 0.3344 6853.9614 2797.7844)" class="st0" width="16.4" height="3"/>
	</g>
	<g>
		
			<rect x="1448.6" y="6275.4" transform="matrix(0.3615 0.9324 -0.9324 0.3615 6781.3721 2650.9077)" class="st0" width="13.1" height="3"/>
	</g>
	<g>
		<path class="st0" d="M2000.8,7909.5l-1.7-5.1l2.8-1l1.7,5.1L2000.8,7909.5z M1990.2,7877.9l-8.9-26.5l2.8-1l8.9,26.5
			L1990.2,7877.9z M1972.4,7824.8l-8.9-26.5l2.8-1l8.9,26.5L1972.4,7824.8z M1954.6,7771.7l-8.9-26.5l2.8-1l8.9,26.5L1954.6,7771.7z
			 M1936.9,7718.6l-8.9-26.5l2.8-1l8.9,26.5L1936.9,7718.6z M1919.1,7665.5l-8.9-26.5l2.8-1l8.9,26.5L1919.1,7665.5z M1901.3,7612.4
			l-8.9-26.5l2.8-1l8.9,26.5L1901.3,7612.4z M1883.5,7559.3l-8.9-26.5l2.8-1l8.9,26.5L1883.5,7559.3z M1865.7,7506.2l-8.9-26.5
			l2.8-1l8.9,26.5L1865.7,7506.2z M1847.9,7453.1l-8.9-26.5l2.8-1l8.9,26.5L1847.9,7453.1z M1830.1,7400l-8.9-26.5l2.8-1l8.9,26.5
			L1830.1,7400z M1812.3,7346.9l-8.9-26.5l2.8-1l8.9,26.5L1812.3,7346.9z M1794.5,7293.8l-8.9-26.5l2.8-1l8.9,26.5L1794.5,7293.8z
			 M1776.7,7240.7l-8.9-26.5l2.8-1l8.9,26.5L1776.7,7240.7z M1758.9,7187.6l-8.9-26.5l2.8-1l8.9,26.5L1758.9,7187.6z M1741.1,7134.5
			l-8.9-26.5l2.8-1l8.9,26.5L1741.1,7134.5z M1723.3,7081.4l-8.9-26.5l2.8-1l8.9,26.5L1723.3,7081.4z M1705.5,7028.3l-8.9-26.5
			l2.8-1l8.9,26.5L1705.5,7028.3z M1687.7,6975.2l-8.9-26.5l2.8-1l8.9,26.5L1687.7,6975.2z M1670,6922.1l-8.9-26.5l2.8-1l8.9,26.5
			L1670,6922.1z M1652.2,6869l-8.9-26.5l2.8-1l8.9,26.5L1652.2,6869z M1634.4,6815.9l-8.9-26.5l2.8-1l8.9,26.5L1634.4,6815.9z
			 M1616.6,6762.8l-8.9-26.5l2.8-1l8.9,26.5L1616.6,6762.8z M1598.8,6709.7l-8.9-26.5l2.8-1l8.9,26.5L1598.8,6709.7z M1581,6656.6
			l-8.9-26.5l2.8-1l8.9,26.5L1581,6656.6z M1563.2,6603.5l-8.9-26.5l2.8-1l8.9,26.5L1563.2,6603.5z M1545.4,6550.4l-8.9-26.5l2.8-1
			l8.9,26.5L1545.4,6550.4z M1527.6,6497.3l-8.9-26.5l2.8-1l8.9,26.5L1527.6,6497.3z M1509.8,6444.2l-8.9-26.5l2.8-1l8.9,26.5
			L1509.8,6444.2z M1492,6391.1l-8.9-26.5l2.8-1l8.9,26.5L1492,6391.1z M1474.2,6338l-8.9-26.5l2.8-1l8.9,26.5L1474.2,6338z"/>
	</g>
	<g>
		
			<rect x="398.5" y="2775.5" transform="matrix(0.206 0.9785 -0.9785 0.206 3038.9797 1808.545)" class="st0" width="12.9" height="3"/>
	</g>
	<g>
		
			<rect x="394.1" y="2755.8" transform="matrix(0.1811 0.9835 -0.9835 0.1811 3039.6729 1863.9946)" class="st0" width="12.9" height="3"/>
	</g>
	<g>
		
			<rect x="367.5" y="2516.5" transform="matrix(0.9985 5.469466e-002 -5.469466e-002 0.9985 138.5242 -16.4063)" class="st0" width="3" height="12.2"/>
	</g>
	<g>
		
			<rect x="367.9" y="2497.7" transform="matrix(0.9998 1.855753e-002 -1.855753e-002 0.9998 46.4977 -6.4246)" class="st0" width="3" height="9"/>
	</g>
	<g>
		<rect x="368.4" y="2479" transform="matrix(0.9946 0.1035 -0.1035 0.9946 259.0585 -24.9549)" class="st0" width="3" height="8"/>
	</g>
	<g>
		<polygon class="st0" points="371,2464.7 368,2464.6 371.2,2266 371.2,2222.7 374.2,2222.7 374.2,2266 		"/>
	</g>
	<g>
		<path class="st0" d="M374.2,2213.4l-3-0.1l0.3-15l3,0.1L374.2,2213.4z M374.8,2183.4l-3-0.1l0.3-15l3,0.1L374.8,2183.4z
			 M375.5,2153.4l-3-0.1l0.3-15l3,0.1L375.5,2153.4z M376.1,2123.4l-3-0.1l0.3-15l3,0.1L376.1,2123.4z M376.7,2093.4l-3-0.1l0.3-15
			l3,0.1L376.7,2093.4z M377.4,2063.4l-3-0.1l0.3-15l3,0.1L377.4,2063.4z M378,2033.4l-3-0.1l0.3-15l3,0.1L378,2033.4z"/>
	</g>
	<g>
		<path class="st0" d="M340.2,2266l-3,0l0.1-11.3l3,0L340.2,2266z M340.5,2239.7l-3,0l0.2-15l3,0L340.5,2239.7z M340.9,2209.7l-3,0
			l0.2-15l3,0L340.9,2209.7z M341.3,2179.7l-3,0l0.2-15l3,0L341.3,2179.7z M341.6,2149.7l-3,0l0.2-15l3,0L341.6,2149.7z"/>
	</g>
	<g>
		<path class="st0" d="M378.5,1934l-3-0.1l0.3-12l3,0.1L378.5,1934z M379,1910l-3-0.1l0.3-12l3,0.1L379,1910z M379.6,1886l-3-0.1
			l0.3-12l3,0.1L379.6,1886z M380.1,1862.1l-3-0.1l0.3-12l3,0.1L380.1,1862.1z"/>
	</g>
	<g>
		<polygon class="st0" points="291.4,1299.5 290.1,1298 303.5,1285.5 292.6,1285.5 309.4,1265 292.5,1265 292.5,1263 313.6,1263 
			296.9,1283.5 308.5,1283.5 		"/>
	</g>
	<g>
		
			<rect x="922" y="4678.2" transform="matrix(0.9189 0.3945 -0.3945 0.9189 1922.7181 15.7592)" class="st0" width="2" height="11.6"/>
	</g>
	<g>
		
			<rect x="930.6" y="4709.7" transform="matrix(0.9466 0.3224 -0.3224 0.9466 1569.6475 -48.625)" class="st0" width="2" height="10.1"/>
	</g>
	<g>
		
			<rect x="937" y="4736.6" transform="matrix(0.8915 0.4531 -0.4531 0.8915 2249.9795 89.5985)" class="st0" width="2" height="9.7"/>
	</g>
	<g>
		
			<rect x="918.9" y="4407" transform="matrix(0.9398 0.3417 -0.3417 0.9398 1562.712 -53.595)" class="st0" width="29.3" height="5"/>
	</g>
	<g>
		
			<rect x="921.2" y="4397.4" transform="matrix(0.9275 0.3739 -0.3739 0.9275 1713.2069 -31.1571)" class="st0" width="31.4" height="5"/>
	</g>
	<g>
		
			<rect x="926.2" y="4386.7" transform="matrix(0.9165 0.4001 -0.4001 0.9165 1834.7616 -10.1229)" class="st0" width="30.8" height="5"/>
	</g>
	<g>
		<polygon class="st0" points="1343.5,5829.6 1352.6,5804.3 1340.4,5789.3 1349.5,5778.4 1351.8,5780.3 1344.3,5789.3 1356,5803.7 
			1348.5,5824.5 1363.1,5818.9 1364.2,5821.7 		"/>
	</g>
	<g>
		<polygon class="st0" points="1378.1,5927.5 1385.8,5905.4 1366.8,5892.4 1383,5886.4 1383.7,5888.3 1371.2,5892.9 1388.2,5904.6 
			1381.3,5924.5 1395.7,5920.1 1396.3,5922 		"/>
	</g>
	<g>
		
			<rect x="1285.7" y="5995.2" transform="matrix(0.3102 0.9507 -0.9507 0.3102 6611.6235 2883.2002)" class="st0" width="66.6" height="5"/>
	</g>
	<g>
		<polygon class="st0" points="1463.2,6481.5 1462.3,6479.8 1477.3,6471.8 1460.8,6465.5 1471.2,6451 1450.8,6440 1463.5,6424.2 
			1445.2,6412.1 1449.6,6389.2 1428,6376.1 1438.3,6354.2 1414.7,6345.7 1425.4,6320.1 1405.2,6307.1 1414,6284.6 1397.6,6290.2 
			1397,6288.3 1417.4,6281.4 1407.7,6306.3 1427.9,6319.3 1417.3,6344.6 1441,6353.1 1430.6,6375.3 1451.8,6388.2 1447.4,6411.2 
			1466.5,6423.8 1453.9,6439.4 1474.1,6450.3 1463.9,6464.5 1482.1,6471.5 		"/>
	</g>
	<g>
		<path class="st0" d="M1407.7,5903.3l-8-23.7c-7.8-24.2-28.2-44.7-28.4-44.9l1.4-1.4c0.2,0.2,20.9,21.1,28.9,45.7l8,23.7
			L1407.7,5903.3z"/>
	</g>
	<g>
		<path class="st0" d="M1421.3,5943.9l-2.4-6.6l1.9-0.7l2.4,6.6L1421.3,5943.9z M1416.5,5930.8l-2.4-6.6l1.9-0.7l2.4,6.6
			L1416.5,5930.8z M1411.8,5917.6l-2.4-6.6l1.9-0.7l2.4,6.6L1411.8,5917.6z"/>
	</g>
	<g>
		
			<rect x="1413.1" y="5970.5" transform="matrix(0.3239 0.9461 -0.9461 0.3239 6618.2241 2681.9202)" class="st0" width="39.1" height="2"/>
	</g>
	<g>
		
			<rect x="1279.5" y="5896.8" transform="matrix(0.3134 0.9496 -0.9496 0.3134 6485.7856 2826.5999)" class="st0" width="17.6" height="3"/>
	</g>
	<g>
		
			<rect x="1290.6" y="5925" transform="matrix(0.3363 0.9417 -0.9417 0.3363 6442.6689 2710.8213)" class="st0" width="14.9" height="3"/>
	</g>
	<g>
		
			<rect x="1202.5" y="5142.8" transform="matrix(0.3241 0.946 -0.946 0.3241 5699.3936 2352.2961)" class="st0" width="2" height="44.1"/>
	</g>
	<g>
		
			<rect x="1213.8" y="5172.4" transform="matrix(0.3136 0.9496 -0.9496 0.3136 5765.5674 2411.4346)" class="st0" width="2" height="42.5"/>
	</g>
	<g>
		
			<rect x="1222.2" y="5202" transform="matrix(0.3547 0.935 -0.935 0.3547 5673.0537 2227.033)" class="st0" width="2" height="42.3"/>
	</g>
	<g>
		<path class="st0" d="M1210.8,5283.6l21.8-21.7l-27.7-2.7l52.1-18.7l-19.9,19.8l27.3,2.7L1210.8,5283.6z M1235.1,5262.2l-16.2,16.2
			l36.8-14.1L1235.1,5262.2z M1213.9,5258.1l20.5,2l14.7-14.7L1213.9,5258.1z"/>
	</g>
	<g>
		
			<rect x="1249.1" y="5279.6" transform="matrix(0.3743 0.9273 -0.9273 0.3743 5697.5386 2157.5415)" class="st0" width="2" height="41.9"/>
	</g>
	<g>
		
			<rect x="1259.2" y="5308.1" transform="matrix(0.3233 0.9463 -0.9463 0.3233 5897.0737 2414.8528)" class="st0" width="2" height="44.7"/>
	</g>
	<g>
		<path class="st0" d="M1366.7,5814.3l-1.3-3.9l1.9-0.6l1.3,3.9L1366.7,5814.3z M1360.8,5796.1l-4.7-14.3l1.9-0.6l4.7,14.3
			L1360.8,5796.1z M1351.4,5767.6l-4.7-14.3l1.9-0.6l4.7,14.3L1351.4,5767.6z M1342.1,5739.1l-4.7-14.3l1.9-0.6l4.7,14.3
			L1342.1,5739.1z M1332.7,5710.6l-4.7-14.3l1.9-0.6l4.7,14.3L1332.7,5710.6z M1323.4,5682.1l-4.7-14.3l1.9-0.6l4.7,14.3
			L1323.4,5682.1z M1314.1,5653.6l-4.7-14.3l1.9-0.6l4.7,14.3L1314.1,5653.6z"/>
	</g>
	<g>
		
			<rect x="1122.6" y="5782.8" transform="matrix(0.3278 0.9447 -0.9447 0.3278 6287.3433 2733.7947)" class="st0" width="199.8" height="5"/>
	</g>
	<g>
		
			<rect x="1236" y="5857.1" transform="matrix(0.3396 0.9406 -0.9406 0.3396 6337.334 2709.8179)" class="st0" width="6" height="21.3"/>
	</g>
	<g>
		<path class="st0" d="M1131.9,5520.6l-6.7-9.9l1.7-1.1l6.7,9.9L1131.9,5520.6z M1118.4,5500.7l-6.7-9.9l1.7-1.1l6.7,9.9
			L1118.4,5500.7z M1104.9,5480.8l-4.4-6.5l-1.3-4.2l1.9-0.6l1.3,4.1l4.2,6.1L1104.9,5480.8z M1095.7,5458.6l-3.5-11.5l1.9-0.6
			l3.5,11.5L1095.7,5458.6z"/>
	</g>
	<g>
		<polygon class="st0" points="637.8,3452.3 635.8,3452.3 617.4,3449.1 630.2,3431.5 610.9,3426 625.1,3408.6 603.8,3404.3 
			619,3387.6 598.9,3383.8 615.2,3368.4 615.8,3369.1 601.1,3383.2 621,3386.9 605.7,3403.7 626.9,3407.9 612.6,3425.5 631.8,3431 
			619.1,3448.4 635.8,3451.3 637.8,3451.3 		"/>
	</g>
	<g>
		<path class="st0" d="M538.2,3165.7l6.4-13.2l2.7,1.3l-3.6,7.4l14.9-3.7l0.7,2.9L538.2,3165.7z M530.7,3136.9l-2-1l17.3-16.2
			l2.1,2.2l-15.8,14.8l-0.9-1L530.7,3136.9z"/>
	</g>
	<g>
		
			<rect x="914" y="4414" transform="matrix(0.9171 0.3987 -0.3987 0.9171 1837.2821 -4.8472)" class="st0" width="32.6" height="2"/>
	</g>
	<g>
		<path class="st0" d="M479,374.3h-2v-0.9h2V374.3z M479,369.3h-2v-4h2V369.3z M479,361.3h-2v-4h2V361.3z M479,353.3h-2v-4h2V353.3z
			 M479,345.3h-2v-4h2V345.3z M479,337.3h-2v-4h2V337.3z M479,329.3h-2v-4h2V329.3z M479,321.3h-2v-4h2V321.3z M479,313.3h-2v-4h2
			V313.3z M479,305.3h-2v-4h2V305.3z"/>
	</g>
	<g>
		<path class="st0" d="M463.7,378.5h-2v-1.2h2V378.5z M463.7,362.3h-2v-15h2V362.3z M463.7,332.3h-2v-15h2V332.3z"/>
	</g>
	<g>
		<path class="st0" d="M459.5,376.3l-2,0l0.2-15l2,0L459.5,376.3z M459.9,346.3l-2,0l0.2-15l2,0L459.9,346.3z M460.4,316.3l-2,0
			l0.2-15l2,0L460.4,316.3z M460.8,286.3l-2,0l0.2-15l2,0L460.8,286.3z"/>
	</g>
	<g>
		<path class="st0" d="M434.5,160.5h-3v-30h3V160.5z M434.5,100.5h-3v-30h3V100.5z M434.5,40.5h-3v-30h3V40.5z"/>
	</g>
	<g>
		<path class="st0" d="M399.5,162l-0.2-18l3,0l0.2,18L399.5,162z M399.1,126l-0.2-18l3,0l0.2,18L399.1,126z M398.8,90l-0.2-18l3,0
			l0.2,18L398.8,90z M398.5,54l-0.2-18l3,0l0.2,18L398.5,54z M398.2,18L398,0l3,0l0.2,18L398.2,18z"/>
	</g>
</g>
<g id="Layer_2">
	<polygon class="st0" points="360.4,936.6 358.5,968.6 356.1,968.6 358.3,987.9 363.8,969.1 360.8,968.8 364.4,937.4 	"/>
	<polygon class="st0" points="343.7,1145.2 341.8,1177.2 339.5,1177.2 341.6,1196.5 347.1,1177.7 344.1,1177.3 347.7,1146 	"/>
	<polygon class="st0" points="334.7,1352.3 334.5,1384.9 332.2,1385.1 335.7,1404.1 339.8,1385 336.8,1384.8 339.2,1352.3 	"/>
	<polygon class="st0" points="971.4,4781.9 963.3,4750.9 965.5,4750.2 957.5,4732.5 958.1,4752.1 961.1,4751.5 967.4,4782.5 	"/>
	<polygon class="st0" points="397.1,1952.7 396.2,1920.1 399.5,1919.9 395.7,1900.9 390.9,1920 393.9,1920.1 393.1,1952.7 	"/>
	<polygon class="st0" points="393.8,2162.6 392.9,2129.9 396.2,2129.7 392.4,2110.7 387.6,2129.9 390.6,2130 389.8,2162.6 	"/>
	<polygon class="st0" points="331.6,936 328,965.9 330.8,965.9 325.4,984.7 323.5,966.1 326.4,965.9 326.6,957.3 324.1,957.3 
		322.5,963.9 319.8,955.9 323.8,948.1 324.3,954.4 326.5,954.4 328,936 	"/>
	<polygon class="st0" points="421,213.8 419.6,182.7 422.4,182.7 419.5,162.8 415.2,182.1 418,182.6 417.6,191.2 415.1,191 
		414,185.3 410.7,193.1 414.1,201.1 415,195.9 417.3,196.1 417.4,213.5 	"/>
	<polygon class="st0" points="779.1,4351.8 786,4381.1 788.6,4380.2 790,4399.7 781.9,4382.9 784.5,4381.7 781.7,4373.5 
		779.4,4374.4 780.1,4381.1 774.8,4374.5 775.9,4365.9 778.5,4371.6 780.6,4370.8 775.7,4353.1 	"/>
	<polygon class="st0" points="315.3,1148.3 311.7,1178.2 314.5,1178.2 309.1,1197 307.2,1178.5 310.1,1178.2 310.3,1169.6 
		307.8,1169.6 306.2,1176.2 303.5,1168.2 307.5,1160.5 308,1166.7 310.2,1166.7 311.7,1148.3 	"/>
	<path class="st0" d="M94.8,1733.5h38.8c0,0,3.9,0.5,3.3,4.8h10l-13.4,5.8l-12-5.3h9c0,0,0.5-1.9-2.4-1.6s-33.3,0.4-33.3,0.4V1733.5
		z"/>
	<path class="st0" d="M94.8,1707.5h38.8c0,0,3.9-0.5,3.3-4.8h10l-13.4-5.8l-12,5.3h9c0,0,0.5,1.9-2.4,1.6s-33.3-0.4-33.3-0.4V1707.5
		z"/>
	<path class="st0" d="M808.6,4342l8.9,37.7c0,0,1.4,3.7,5.4,2.1l2.3,9.7l2.5-14.3l-7.9-10.5l2.1,8.8c0,0-1.7,0.9-2.1-1.9
		c-0.4-2.9-7.3-32.4-7.3-32.4L808.6,4342z"/>
	<polygon class="st0" points="710.1,4095.9 716.9,4125.2 719.5,4124.2 720.9,4143.7 712.8,4126.9 715.4,4125.7 712.6,4117.5 
		710.3,4118.4 711.1,4125.2 705.8,4118.6 706.8,4109.9 709.5,4115.6 711.6,4114.9 706.7,4097.1 	"/>
	<path class="st0" d="M738.2,4086.7l11.1,37.1c0,0,1.6,3.6,5.5,1.8l2.9,9.6l1.7-14.5l-8.5-10l2.6,8.6c0,0-1.7,1-2.2-1.8
		c-0.6-2.8-9.1-32-9.1-32L738.2,4086.7z"/>
	<path class="st0" d="M1023.5,4434.5l-36-14.3c0,0-3.4-1.9-1.3-5.6l-9.3-3.7l14.6-0.4l9.2,9.3l-8.4-3.3c0,0-1.2,1.6,1.6,2.4
		c2.8,0.8,31,11.9,31,11.9L1023.5,4434.5z"/>
	<path class="st0" d="M1185.4,4498.5l-36-14.3c0,0-3.4-1.9-1.3-5.6l-9.3-3.7l14.6-0.4l9.2,9.3l-8.4-3.3c0,0-1.2,1.6,1.6,2.4
		c2.8,0.8,31,11.9,31,11.9L1185.4,4498.5z"/>
	<path class="st0" d="M994.5,4777l-9-37.7c0,0-0.4-3.9,3.9-4.3l-2.3-9.7l8.7,11.7l-2.3,12.9l-2.1-8.8c0,0-1.9-0.1-1,2.7
		c0.9,2.7,8.1,32.3,8.1,32.3L994.5,4777z"/>
	<path class="st0" d="M724.3,4735l36.7-12.3c0,0,3.8-0.8,4.6,3.5l9.5-3.2l-10.9,9.7l-13-1.2l8.5-2.9c0,0-0.1-1.9-2.8-0.8
		c-2.6,1.1-31.4,10.9-31.4,10.9L724.3,4735z"/>
	<polygon class="st0" points="1046.8,5034.4 1035,5004.6 1037.1,5003.6 1027.1,4987 1030,5006.4 1032.9,5005.4 1042.9,5035.4 	"/>
	<polygon class="st0" points="1129.2,5285.1 1117.4,5255.4 1119.6,5254.3 1109.5,5237.8 1112.4,5257.1 1115.3,5256.2 1125.3,5286.2 
			"/>
	<path class="st0" d="M1074.3,5027.6l-11.5-37c0,0-0.7-3.8,3.6-4.5l-3-9.6l9.4,11.1l-1.5,13l-2.7-8.6c0,0-1.9,0.1-0.8,2.7
		c1.1,2.7,10.2,31.7,10.2,31.7L1074.3,5027.6z"/>
	<path class="st0" d="M1173.3,4527.9l-35.8-14.9c0,0-3.8-1-4.8,3.1l-9.2-3.8l10.1,10.4l13.1-0.2l-8.3-3.5c0,0,0.3-1.9,2.8-0.6
		c2.6,1.3,30.6,13.1,30.6,13.1L1173.3,4527.9z"/>
	<path class="st0" d="M1363.8,4570.1l-35.7-15c0,0-3.4-2-1.2-5.6l-9.2-3.9l14.6-0.1l9,9.5l-8.3-3.5c0,0-1.2,1.5,1.6,2.4
		c2.7,0.9,30.8,12.5,30.8,12.5L1363.8,4570.1z"/>
	<path class="st0" d="M1355,4596.4l-36.2-13.9c0,0-3.8-0.9-4.7,3.3l-9.3-3.6l10.4,10.2l13.1-0.6l-8.4-3.2c0,0,0.2-1.9,2.8-0.7
		c2.6,1.3,30.9,12.3,30.9,12.3L1355,4596.4z"/>
	<path class="st0" d="M362.9,1949.8V1911c0,0-0.5-3.9-4.8-3.3v-10l-5.8,13.4l5.3,12v-9c0,0,1.9-0.5,1.6,2.4s-0.4,33.3-0.4,33.3
		H362.9z"/>
	<path class="st0" d="M360.5,2162.7v-38.8c0,0-0.5-3.9-4.8-3.3v-10L350,2124l5.3,12v-9c0,0,1.9-0.5,1.6,2.4s-0.4,33.3-0.4,33.3
		H360.5z"/>
	<polygon class="st0" points="391.2,2370.6 390.2,2337.9 393.6,2337.7 389.8,2318.7 385,2337.9 388,2338 387.1,2370.6 	"/>
	<path class="st0" d="M357.9,2370.7v-38.8c0,0-0.5-3.9-4.8-3.3v-10l-5.8,13.4l5.3,12v-9c0,0,1.9-0.5,1.6,2.4s-0.4,33.3-0.4,33.3
		H357.9z"/>
	<text transform="matrix(0.9477 -0.3192 1.2701 3.771 1278.9072 5597.1304)" class="st1 st2 st3">BUS</text>
	<text transform="matrix(-0.9465 0.3227 -1.1281 -3.3087 1263.1101 5862.4248)" class="st1 st2 st3">BUS</text>
	<g>
		<g>
			<g>
				<path class="st0" d="M1142,5310.3c-0.4,0.3-0.6,0.7-0.4,1.4c0.3,1.6,0.6,3.2,0.9,4.8c0.2,1.2-0.2,1.9-1,1.8
					c-0.7-0.1-1.4-0.9-1.6-2.1c-0.4-1.8-0.7-3.7-1.1-5.5c-0.2-0.9-0.1-1.6,0.3-2.2c0.7-1.1,1.4-2.2,2.1-3.2c0.5-0.8,1.2-1.1,2.2-0.6
					c1,0.5,1.6,1.5,1.9,2.7c0.8,2.7,1.7,5.4,2.5,8.1c0.2,0.7,0.6,1.2,1.1,1.5c0.8,0.5,1.7,1,2.5,1.6c0.7,0.4,1.3,1.1,1.7,2
					c1.2,2.5,2.4,5,3.5,7.5c0.6,1.4,0.3,2.5-0.7,2.6c-0.7,0.1-1.5-0.5-2-1.6c-0.9-2-1.9-3.9-2.8-5.9c-0.3-0.7-0.7-1.1-1.2-1.5
					c-1.2-0.7-2.4-1.5-3.6-2.2c-1.2-0.7-2-1.7-2.5-3.3c-0.5-1.7-1-3.3-1.6-5C1142.2,5310.8,1142.1,5310.6,1142,5310.3z"/>
				<path class="st0" d="M1145.3,5319.6c1,0.6,2,1.2,3,1.9c0.2,0.1,0.4,0.5,0.4,0.7c0.5,2.9,1.1,5.8,1.6,8.7
					c0.2,1.1-0.4,1.9-1.2,1.8c-0.8-0.1-1.7-1-1.9-2.1c-0.7-3.6-1.3-7.2-1.9-10.7C1145.3,5319.7,1145.3,5319.7,1145.3,5319.6z"/>
				<path class="st0" d="M1139,5300.5c-0.7-1.8-0.3-3.5,0.9-3.8c1.3-0.4,2.8,0.8,3.6,2.7c0.7,1.8,0.3,3.4-1,3.8
					C1141.3,5303.5,1139.7,5302.3,1139,5300.5z"/>
				<path class="st0" d="M1146.2,5308.3c1.2,0.7,2.3,1.2,3.3,1.8c0.6,0.3,1.2,0.7,1.8,1c0.8,0.5,1.3,1.4,1.2,2.2
					c-0.1,1-0.6,1.3-1.5,0.8c-1.1-0.6-2.2-1.2-3.3-1.8c-0.1-0.1-0.4-0.3-0.4-0.4C1147,5310.9,1146.6,5309.7,1146.2,5308.3z"/>
			</g>
			<g>
				<path class="st0" d="M1135.4,5316.6c-0.3,0.2-0.5,0.6-0.3,1.1c0.3,1.3,0.5,2.6,0.8,3.9c0.2,1-0.1,1.5-0.8,1.4
					c-0.6-0.1-1.1-0.8-1.3-1.7c-0.3-1.5-0.6-3-0.9-4.5c-0.2-0.7-0.1-1.4,0.2-1.8c0.6-0.9,1.1-1.8,1.7-2.7c0.4-0.6,1-0.9,1.8-0.5
					c0.8,0.4,1.3,1.2,1.6,2.2c0.7,2.2,1.4,4.5,2,6.7c0.2,0.6,0.5,1,0.9,1.2c0.7,0.4,1.4,0.9,2,1.3c0.6,0.4,1.1,0.9,1.4,1.6
					c1,2,1.9,4.1,2.9,6.2c0.5,1.1,0.2,2.1-0.6,2.2c-0.6,0.1-1.2-0.4-1.6-1.3c-0.8-1.6-1.5-3.2-2.3-4.9c-0.3-0.5-0.5-0.9-1-1.2
					c-1-0.6-2-1.2-2.9-1.8c-1-0.6-1.7-1.4-2-2.7c-0.4-1.4-0.9-2.7-1.3-4.1C1135.5,5317.1,1135.4,5316.9,1135.4,5316.6z"/>
				<path class="st0" d="M1138.1,5324.3c0.8,0.5,1.6,1,2.5,1.6c0.1,0.1,0.3,0.4,0.4,0.6c0.4,2.4,0.9,4.8,1.3,7.1
					c0.2,0.9-0.3,1.5-1,1.4c-0.7-0.1-1.4-0.8-1.6-1.7c-0.5-2.9-1.1-5.9-1.6-8.8C1138.1,5324.4,1138.1,5324.3,1138.1,5324.3z"/>
				<path class="st0" d="M1132.9,5308.6c-0.6-1.5-0.2-2.9,0.8-3.1c1-0.3,2.3,0.7,2.9,2.2c0.6,1.5,0.2,2.8-0.8,3.1
					C1134.8,5311,1133.5,5310.1,1132.9,5308.6z"/>
				<path class="st0" d="M1138.9,5315c1,0.5,1.9,1,2.7,1.5c0.5,0.3,1,0.5,1.5,0.8c0.7,0.4,1,1.1,1,1.8c-0.1,0.8-0.5,1.1-1.2,0.7
					c-0.9-0.5-1.8-1-2.7-1.5c-0.1-0.1-0.3-0.2-0.3-0.4C1139.5,5317.1,1139.2,5316.1,1138.9,5315z"/>
			</g>
		</g>
		<g>
			<g>
				<path class="st0" d="M1166.9,5302.6c0.5,0,0.9,0.2,1.3,0.9c0.9,1.4,1.8,2.8,2.8,4.2c0.7,1,1.5,1.4,2,0.8
					c0.5-0.5,0.4-1.5-0.3-2.5c-1.1-1.6-2.1-3.2-3.2-4.9c-0.5-0.8-1.1-1.3-1.8-1.6c-1.3-0.5-2.6-0.9-4-1.4c-0.9-0.3-1.7-0.2-2.1,0.7
					c-0.4,0.9-0.1,2,0.5,3.2c1.3,2.6,2.7,5.1,4,7.7c0.3,0.7,0.4,1.2,0.3,1.7c-0.3,0.9-0.5,1.7-0.8,2.6c-0.2,0.7-0.2,1.6,0.1,2.5
					c0.9,2.6,1.8,5.2,2.8,7.7c0.5,1.4,1.6,2.1,2.5,1.7c0.6-0.3,0.8-1.2,0.4-2.4c-0.7-2-1.4-4.1-2.2-6.1c-0.3-0.7-0.3-1.2-0.1-1.8
					c0.4-1.2,0.8-2.5,1.2-3.7c0.4-1.2,0.3-2.5-0.4-3.9c-0.8-1.6-1.6-3.2-2.4-4.7C1167.1,5303.2,1167,5302.9,1166.9,5302.6z"/>
				<path class="st0" d="M1171.1,5311.7c-0.3,1-0.6,2.1-0.9,3.1c0,0.2,0,0.6,0.2,0.8c1.7,2.5,3.4,5.1,5.1,7.6c0.7,1,1.7,1.3,2.2,0.7
					c0.5-0.5,0.6-1.7-0.1-2.7c-2.1-3.1-4.2-6.3-6.4-9.4C1171.2,5311.7,1171.2,5311.7,1171.1,5311.7z"/>
				<path class="st0" d="M1162,5293.4c-0.8-1.8-2.3-2.8-3.5-2.5c-1.3,0.4-1.6,2.2-0.8,4c0.8,1.8,2.3,2.8,3.5,2.4
					C1162.4,5297,1162.8,5295.2,1162,5293.4z"/>
				<path class="st0" d="M1162.2,5303.5c-0.4,1.2-0.8,2.2-1.2,3.2c-0.2,0.6-0.5,1.2-0.7,1.8c-0.3,0.8,0,1.8,0.7,2.4
					c0.8,0.7,1.4,0.7,1.8-0.2c0.4-1,0.8-2.1,1.2-3.2c0.1-0.1,0.1-0.4,0-0.6C1163.4,5305.8,1162.8,5304.7,1162.2,5303.5z"/>
			</g>
			<g>
				<path class="st0" d="M1176.6,5303.9c0.4,0,0.8,0.2,1.1,0.7c0.7,1.2,1.5,2.3,2.3,3.5c0.6,0.9,1.2,1.1,1.7,0.7
					c0.4-0.4,0.3-1.2-0.2-2.1c-0.9-1.3-1.7-2.6-2.6-4c-0.4-0.7-0.9-1.1-1.5-1.3c-1.1-0.4-2.2-0.8-3.3-1.1c-0.8-0.3-1.4-0.2-1.7,0.6
					c-0.3,0.8-0.1,1.7,0.4,2.6c1.1,2.1,2.2,4.2,3.3,6.3c0.3,0.5,0.3,1,0.2,1.4c-0.2,0.7-0.4,1.4-0.6,2.1c-0.2,0.6-0.2,1.3,0.1,2
					c0.7,2.1,1.5,4.2,2.3,6.4c0.4,1.2,1.3,1.7,2,1.4c0.5-0.3,0.6-1,0.3-1.9c-0.6-1.7-1.2-3.3-1.8-5c-0.2-0.6-0.3-1-0.1-1.5
					c0.3-1,0.6-2,0.9-3c0.3-1,0.2-2-0.4-3.2c-0.7-1.3-1.3-2.6-2-3.9C1176.9,5304.4,1176.8,5304.2,1176.6,5303.9z"/>
				<path class="st0" d="M1180.1,5311.3c-0.3,0.9-0.5,1.7-0.8,2.5c0,0.1,0,0.5,0.1,0.6c1.4,2.1,2.8,4.2,4.2,6.2
					c0.6,0.8,1.4,1,1.8,0.6c0.5-0.4,0.5-1.4,0-2.2c-1.7-2.6-3.5-5.1-5.2-7.7C1180.2,5311.4,1180.2,5311.4,1180.1,5311.3z"/>
				<path class="st0" d="M1172.6,5296.4c-0.6-1.4-1.9-2.3-2.9-2c-1,0.3-1.3,1.8-0.7,3.3c0.6,1.5,1.9,2.3,2.9,2
					C1173,5299.3,1173.3,5297.9,1172.6,5296.4z"/>
				<path class="st0" d="M1172.8,5304.6c-0.4,0.9-0.7,1.8-1,2.7c-0.2,0.5-0.4,1-0.5,1.5c-0.2,0.7,0,1.4,0.6,1.9
					c0.6,0.6,1.2,0.5,1.5-0.1c0.4-0.9,0.7-1.7,1-2.6c0-0.1,0.1-0.3,0-0.5C1173.8,5306.6,1173.3,5305.6,1172.8,5304.6z"/>
			</g>
		</g>
	</g>
	<text transform="matrix(-0.1691 -8.158814e-003 4.820000e-002 -0.9988 311.4554 1340.6606)" class="st4 st5 st6">BUS</text>
	<polygon class="st7" points="843.5,4702.5 851.8,4698.7 871.8,4741.5 860.3,4737.1 	"/>
	<polygon class="st7" points="823,4651 832,4645.8 810.1,4576.7 804.5,4602.7 	"/>
	<polygon class="st7" points="983.8,4663.5 991.5,4653 1009.8,4714 1007.3,4741.5 	"/>
	<polygon class="st7" points="889.8,4353 900.2,4405.8 913.5,4409.5 906.8,4363.7 889.2,4352 	"/>
	<polygon class="st7" points="464.3,280 465.7,378.5 475.7,374.3 475.7,299.7 	"/>
</g>
</svg>
