<?xml version="1.0" encoding="utf-8"?>
<!-- Generator: Adobe Illustrator 19.0.0, SVG Export Plug-In . SVG Version: 6.00 Build 0)  -->
<svg version="1.0" id="Layer_2" xmlns="http://www.w3.org/2000/svg" xmlns:xlink="http://www.w3.org/1999/xlink" x="0px" y="0px"
	 viewBox="0 0 2376 7909" style="enable-background:new 0 0 2376 7909;" xml:space="preserve">
<style type="text/css">
	.st0{fill:#FFFFFF;stroke:#FFFFFF;stroke-miterlimit:10;}
	.st1{fill:#FCFCFC;}
</style>
<g>
	<path class="st0" d="M1279.4,5608.4c0.4-0.7,1.2-1.3,2.1-1.6c1.3-0.4,2.5,0.2,3.8,2c1,1.4,2.2,3.7,3.2,6.8c1.3,3.9,1.8,7.5,1.3,9.4
		l0,0.1c1.3,0.6,3.5,3.4,5.5,9.4c1.2,3.5,1.7,6.2,1.9,8.4c0.2,2.8-0.6,4.4-2.2,4.9c-0.9,0.3-1.7,0.3-2.2,0.2L1279.4,5608.4z
		 M1286.3,5624.4l1.2-0.4c1.4-0.5,1.2-3.6-0.1-7.5c-1.6-4.7-3.1-6.3-4.4-5.8c-0.6,0.2-0.9,0.5-1,0.7L1286.3,5624.4z M1292.8,5643.7
		c0.3,0.1,0.7,0,1.2-0.1c1.4-0.5,1.9-2.8,0-8.7c-1.9-5.5-3.8-7.4-5.2-6.9l-1.1,0.4L1292.8,5643.7z"/>
	<path class="st0" d="M1299.9,5667.4l8,23.8c3,9,5.3,12.5,6.7,12.1c1.5-0.5,1.1-4.8-1.9-13.7l-8-23.8l1.3-0.4l7.9,23.5
		c4.2,12.4,4.2,18,2,18.7c-2.1,0.7-5.2-3.5-9.4-16l-8-23.7L1299.9,5667.4z"/>
	<path class="st0" d="M1331.1,5761.2c1.1,1.2,2.3,2.1,3.2,1.8c1.3-0.5,1.2-3.5-0.2-7.6c-1.3-3.8-2.5-5.7-4.6-7.4
		c-2.4-1.8-4.6-4.8-6.5-10.5c-2.1-6.3-2.4-11.4-0.4-12c1-0.3,2.1,0.4,2.9,1.2l1.1,4.4c-0.6-0.6-1.7-1.6-2.6-1.3
		c-1.4,0.5-0.8,3.9,0.1,6.7c1.3,3.8,2.5,5.4,4.6,7.1c2.6,2.1,4.6,5,6.6,11c2.1,6.2,2.7,12,0.4,12.8c-1,0.3-2.4-0.4-3.4-1.7
		L1331.1,5761.2z"/>
</g>
<g>
	<path class="st0" d="M1263,5852.4c-0.4,0.6-1.2,1.2-2.1,1.5c-1.3,0.4-2.4-0.1-3.7-1.6c-1-1.2-2-3.2-3-6c-1.2-3.4-1.5-6.6-0.9-8.3
		l0-0.1c-1.2-0.5-3.3-2.9-5.1-8.1c-1-3-1.5-5.5-1.6-7.4c-0.1-2.5,0.7-3.9,2.4-4.5c0.9-0.3,1.7-0.3,2.2-0.3L1263,5852.4z
		 M1250.9,5821.4c-0.3-0.1-0.7,0-1.2,0.2c-1.3,0.5-2,2.6-0.3,7.8c1.6,4.8,3.5,6.4,4.9,5.9l1.1-0.4L1250.9,5821.4z M1256.7,5838.4
		l-1.2,0.4c-1.4,0.5-1.3,3.3-0.2,6.7c1.4,4.1,2.9,5.5,4.2,5c0.6-0.2,0.9-0.5,1-0.7L1256.7,5838.4z"/>
	<path class="st0" d="M1244.7,5800.6l-7.1-20.9c-2.7-7.9-4.8-10.9-6.2-10.5c-1.5,0.5-1.3,4.3,1.4,12.1l7.1,20.9l-1.3,0.4l-7-20.6
		c-3.7-10.9-3.6-15.9-1.4-16.6c2.1-0.7,5,2.9,8.8,13.9l7.1,20.8L1244.7,5800.6z"/>
	<path class="st0" d="M1217,5718.3c-1-1.1-2.2-1.8-3.1-1.5c-1.3,0.5-1.3,3.2-0.1,6.7c1.1,3.3,2.3,5,4.3,6.4c2.3,1.5,4.4,4.1,6.1,9.1
		c1.9,5.5,2,10,0,10.7c-1,0.4-2.1-0.2-2.8-1l-0.9-3.8c0.5,0.5,1.6,1.3,2.5,1c1.4-0.5,0.9-3.5,0.1-5.9c-1.1-3.3-2.3-4.7-4.3-6.1
		c-2.5-1.7-4.4-4.3-6.1-9.5c-1.9-5.5-2.3-10.6,0.1-11.4c1-0.3,2.4,0.3,3.3,1.4L1217,5718.3z"/>
</g>
<g>
	<path class="st1" d="M1192.1,5464.7c0.1-2,0.3-3.8,0.5-5.4c0.2-1.6,0.5-3,0.9-4.1l0-0.1c-0.2-0.4-0.3-0.9-0.5-1.5
		c-0.1-0.6-0.2-1.3-0.3-2.2c-0.1-0.8-0.1-1.8-0.1-2.8s0-2.2,0.1-3.5c0.1-1.1,0.1-2.3,0.3-3.6c0.1-1.3,0.3-2.5,0.5-3.7
		c0.2-1.2,0.5-2.3,0.8-3.3c0.3-1,0.7-1.8,1.1-2.3c0.1-0.1,0.2-0.3,0.3-0.4c0.1-0.1,0.2-0.2,0.4-0.3c0.1-0.1,0.3-0.1,0.5-0.1
		c0.2,0,0.4,0,0.6,0l2.2,0.1l-2.2,45.5l-2.7-0.1c-0.6,0-1-0.4-1.3-1.1c-0.2-0.5-0.4-1.2-0.6-2c-0.2-0.8-0.3-1.7-0.3-2.7
		c-0.1-1-0.1-2-0.1-3.1S1192,5465.8,1192.1,5464.7z M1195.3,5458.2c-0.4,0-0.7,0.2-0.9,0.6c-0.2,0.5-0.4,1.2-0.6,2.1
		s-0.2,1.9-0.3,3.1c-0.1,1.2-0.1,2.3,0,3.2c0.1,0.9,0.2,1.7,0.4,2.1c0.1,0.2,0.2,0.3,0.3,0.4c0.1,0.1,0.3,0.1,0.5,0.1l1.2,0.1
		l0.6-11.8L1195.3,5458.2z M1196.9,5451.3l0.6-12.8l-0.9,0c-0.2,0-0.5,0-0.6,0.1c-0.2,0.1-0.3,0.2-0.5,0.4c-0.2,0.2-0.4,0.6-0.5,1
		c-0.2,0.4-0.3,0.9-0.4,1.4c-0.1,0.5-0.2,1.1-0.3,1.8c-0.1,0.6-0.1,1.3-0.2,2.1c-0.1,1.3-0.1,2.4,0,3.3c0.1,1,0.2,1.7,0.5,2.2
		c0.1,0.2,0.2,0.4,0.4,0.5c0.1,0.1,0.3,0.2,0.6,0.2L1196.9,5451.3z"/>
	<path class="st1" d="M1188.8,5430.2c0.4,0,0.8,0.3,1.1,0.8c0.3,0.5,0.6,1.2,0.8,2c0.2,0.9,0.4,2,0.5,3.2c0.1,1.3,0.2,2.7,0.2,4.3
		c0,1.3,0,2.7,0,4.2c0,1.5-0.1,3.3-0.2,5.2l-1.3,26.8l-1.4-0.1l1.3-26.1c0.2-3.2,0.2-5.7,0.2-7.6c0-2-0.2-3.5-0.4-4.4
		s-0.5-1.4-0.9-1.4c-0.4,0-0.7,0.4-1.1,1.3c-0.3,0.9-0.6,2.3-0.9,4.3c-0.2,1.8-0.4,4.3-0.6,7.5l-1.3,26.1l-1.4-0.1l1.3-26.8
		c0.1-1.9,0.2-3.6,0.3-5.2c0.1-1.5,0.2-2.9,0.4-4.2c0.2-1.6,0.4-3,0.6-4.3c0.2-1.3,0.5-2.3,0.8-3.2c0.3-0.9,0.6-1.5,1-2
		C1188,5430.4,1188.4,5430.2,1188.8,5430.2z"/>
	<path class="st1" d="M1179.3,5443.7c-0.1,1.2-0.1,2.1,0,2.8s0.2,1.3,0.3,1.8c0.1,0.5,0.3,0.8,0.5,1.1c0.2,0.3,0.4,0.6,0.6,0.9
		c0.3,0.4,0.5,0.9,0.8,1.4c0.2,0.5,0.5,1.3,0.6,2.2c0.2,1,0.3,2.2,0.3,3.6c0.1,1.5,0,3.3-0.1,5.5c-0.1,2.4-0.3,4.5-0.5,6.3
		c-0.2,1.8-0.5,3.2-0.8,4.4s-0.6,2-1,2.6c-0.4,0.6-0.7,0.8-1.2,0.8c-0.4,0-0.8-0.3-1.2-0.8s-0.7-1.1-1-1.9l0.3-7.1
		c0.4,0.9,0.7,1.6,1.1,2.1c0.3,0.4,0.7,0.7,1,0.7c0.5,0,0.8-0.5,1.1-1.4c0.3-1,0.5-2.5,0.6-4.5c0.1-1.2,0.1-2.1,0-2.9
		c0-0.8-0.1-1.4-0.2-1.9c-0.1-0.5-0.3-0.9-0.4-1.2c-0.2-0.3-0.4-0.6-0.5-0.8c-0.3-0.4-0.6-0.9-0.9-1.5c-0.3-0.5-0.5-1.3-0.7-2.3
		c-0.2-1-0.3-2.2-0.4-3.8c-0.1-1.5,0-3.5,0.1-5.9c0.1-2.4,0.3-4.6,0.5-6.4c0.2-1.8,0.5-3.3,0.9-4.4c0.3-1.2,0.7-2,1.2-2.6
		c0.4-0.5,0.9-0.8,1.4-0.8c0.4,0,0.8,0.3,1.2,0.8c0.4,0.5,0.7,1.2,0.9,2.1l-0.3,7c-0.3-1-0.7-1.7-1-2.2c-0.3-0.5-0.7-0.7-1.1-0.7
		c-0.2,0-0.4,0.1-0.7,0.3c-0.2,0.2-0.4,0.6-0.6,1.1c-0.2,0.5-0.4,1.2-0.5,2.1C1179.4,5441.3,1179.3,5442.4,1179.3,5443.7z"/>
</g>
</svg>
